<svg xmlns="http://www.w3.org/2000/svg" xmlns:xlink="http://www.w3.org/1999/xlink" width="5400" zoomAndPan="magnify" viewBox="0 0 4050 809.999993" height="1080" preserveAspectRatio="xMidYMid meet" version="1.0"><defs><g/><clipPath id="d945c51eec"><path d="M 465 340 L 508 340 L 508 380 L 465 380 Z M 465 340 " clip-rule="nonzero"/></clipPath><clipPath id="9164e31059"><path d="M -7.851562 -0.566406 L 4050.242188 -35.980469 L 4057.632812 810.738281 L -0.460938 846.152344 Z M -7.851562 -0.566406 " clip-rule="nonzero"/></clipPath><clipPath id="4a9fd263d6"><path d="M -530.972656 -126.511719 L 5078.8125 -175.46875 L 5088.425781 926.238281 L -521.359375 975.195312 Z M -530.972656 -126.511719 " clip-rule="nonzero"/></clipPath><clipPath id="b996d82c32"><path d="M 499 219 L 630 219 L 630 345 L 499 345 Z M 499 219 " clip-rule="nonzero"/></clipPath><clipPath id="c72834c4b5"><path d="M -7.851562 -0.566406 L 4050.242188 -35.980469 L 4057.632812 810.738281 L -0.460938 846.152344 Z M -7.851562 -0.566406 " clip-rule="nonzero"/></clipPath><clipPath id="414cee9e8a"><path d="M -530.972656 -126.511719 L 5078.8125 -175.46875 L 5088.425781 926.238281 L -521.359375 975.195312 Z M -530.972656 -126.511719 " clip-rule="nonzero"/></clipPath><clipPath id="7d215bce18"><path d="M 336 220 L 465 220 L 465 347 L 336 347 Z M 336 220 " clip-rule="nonzero"/></clipPath><clipPath id="d4537d6322"><path d="M -7.851562 -0.566406 L 4050.242188 -35.980469 L 4057.632812 810.738281 L -0.460938 846.152344 Z M -7.851562 -0.566406 " clip-rule="nonzero"/></clipPath><clipPath id="7d1b9a6e43"><path d="M -530.972656 -126.511719 L 5078.8125 -175.46875 L 5088.425781 926.238281 L -521.359375 975.195312 Z M -530.972656 -126.511719 " clip-rule="nonzero"/></clipPath><clipPath id="fd9f96a9f8"><path d="M 239 153 L 348 153 L 348 268 L 239 268 Z M 239 153 " clip-rule="nonzero"/></clipPath><clipPath id="211cd78f8d"><path d="M -7.851562 -0.566406 L 4050.242188 -35.980469 L 4057.632812 810.738281 L -0.460938 846.152344 Z M -7.851562 -0.566406 " clip-rule="nonzero"/></clipPath><clipPath id="939bbbca58"><path d="M -530.972656 -126.511719 L 5078.8125 -175.46875 L 5088.425781 926.238281 L -521.359375 975.195312 Z M -530.972656 -126.511719 " clip-rule="nonzero"/></clipPath><clipPath id="7a181d8e84"><path d="M 620 160 L 729 160 L 729 274 L 620 274 Z M 620 160 " clip-rule="nonzero"/></clipPath><clipPath id="aeb8c35aa5"><path d="M -7.851562 -0.566406 L 4050.242188 -35.980469 L 4057.632812 810.738281 L -0.460938 846.152344 Z M -7.851562 -0.566406 " clip-rule="nonzero"/></clipPath><clipPath id="8797bb71a2"><path d="M -530.972656 -126.511719 L 5078.8125 -175.46875 L 5088.425781 926.238281 L -521.359375 975.195312 Z M -530.972656 -126.511719 " clip-rule="nonzero"/></clipPath><clipPath id="3c9600234b"><path d="M 495 434 L 632 434 L 632 691 L 495 691 Z M 495 434 " clip-rule="nonzero"/></clipPath><clipPath id="32a708f9f2"><path d="M -7.851562 -0.566406 L 4050.242188 -35.980469 L 4057.632812 810.738281 L -0.460938 846.152344 Z M -7.851562 -0.566406 " clip-rule="nonzero"/></clipPath><clipPath id="fc734b7e9b"><path d="M -530.972656 -126.511719 L 5078.8125 -175.46875 L 5088.425781 926.238281 L -521.359375 975.195312 Z M -530.972656 -126.511719 " clip-rule="nonzero"/></clipPath><clipPath id="4cfa4d912a"><path d="M 331 437 L 473 437 L 473 693 L 331 693 Z M 331 437 " clip-rule="nonzero"/></clipPath><clipPath id="e233ba88d0"><path d="M -7.851562 -0.566406 L 4050.242188 -35.980469 L 4057.632812 810.738281 L -0.460938 846.152344 Z M -7.851562 -0.566406 " clip-rule="nonzero"/></clipPath><clipPath id="f3fb06e698"><path d="M -530.972656 -126.511719 L 5078.8125 -175.46875 L 5088.425781 926.238281 L -521.359375 975.195312 Z M -530.972656 -126.511719 " clip-rule="nonzero"/></clipPath><clipPath id="40def4574c"><path d="M 239 520 L 338 520 L 338 684 L 239 684 Z M 239 520 " clip-rule="nonzero"/></clipPath><clipPath id="3cf0d816f5"><path d="M -7.851562 -0.566406 L 4050.242188 -35.980469 L 4057.632812 810.738281 L -0.460938 846.152344 Z M -7.851562 -0.566406 " clip-rule="nonzero"/></clipPath><clipPath id="32a918889f"><path d="M -530.972656 -126.511719 L 5078.8125 -175.46875 L 5088.425781 926.238281 L -521.359375 975.195312 Z M -530.972656 -126.511719 " clip-rule="nonzero"/></clipPath><clipPath id="a4542bef32"><path d="M 629 514 L 727 514 L 727 683 L 629 683 Z M 629 514 " clip-rule="nonzero"/></clipPath><clipPath id="038059b8f6"><path d="M -7.851562 -0.566406 L 4050.242188 -35.980469 L 4057.632812 810.738281 L -0.460938 846.152344 Z M -7.851562 -0.566406 " clip-rule="nonzero"/></clipPath><clipPath id="9af4dbb467"><path d="M -530.972656 -126.511719 L 5078.8125 -175.46875 L 5088.425781 926.238281 L -521.359375 975.195312 Z M -530.972656 -126.511719 " clip-rule="nonzero"/></clipPath><clipPath id="a39a2f6cbd"><path d="M 312 245 L 616 245 L 616 515 L 312 515 Z M 312 245 " clip-rule="nonzero"/></clipPath><clipPath id="343c2f96a4"><path d="M -7.851562 -0.566406 L 4050.242188 -35.980469 L 4057.632812 810.738281 L -0.460938 846.152344 Z M -7.851562 -0.566406 " clip-rule="nonzero"/></clipPath><clipPath id="c5b29754df"><path d="M -530.972656 -126.511719 L 5078.8125 -175.46875 L 5088.425781 926.238281 L -521.359375 975.195312 Z M -530.972656 -126.511719 " clip-rule="nonzero"/></clipPath><clipPath id="0168daf951"><path d="M 357 245 L 662 245 L 662 514 L 357 514 Z M 357 245 " clip-rule="nonzero"/></clipPath><clipPath id="cb3c695d9b"><path d="M -7.851562 -0.566406 L 4050.242188 -35.980469 L 4057.632812 810.738281 L -0.460938 846.152344 Z M -7.851562 -0.566406 " clip-rule="nonzero"/></clipPath><clipPath id="65450827fe"><path d="M -530.972656 -126.511719 L 5078.8125 -175.46875 L 5088.425781 926.238281 L -521.359375 975.195312 Z M -530.972656 -126.511719 " clip-rule="nonzero"/></clipPath><clipPath id="1a95970659"><path d="M 898 302 L 1184 302 L 1184 565 L 898 565 Z M 898 302 " clip-rule="nonzero"/></clipPath><clipPath id="fa6111a9d1"><path d="M -7.851562 -0.566406 L 4050.242188 -35.980469 L 4057.632812 810.738281 L -0.460938 846.152344 Z M -7.851562 -0.566406 " clip-rule="nonzero"/></clipPath><clipPath id="22327ae47e"><path d="M -530.972656 -126.511719 L 5078.8125 -175.46875 L 5088.425781 926.238281 L -521.359375 975.195312 Z M -530.972656 -126.511719 " clip-rule="nonzero"/></clipPath><clipPath id="3294b8b96c"><path d="M 1187 277 L 1447 277 L 1447 684 L 1187 684 Z M 1187 277 " clip-rule="nonzero"/></clipPath><clipPath id="b216cd7ade"><path d="M -7.851562 -0.566406 L 4050.242188 -35.980469 L 4057.632812 810.738281 L -0.460938 846.152344 Z M -7.851562 -0.566406 " clip-rule="nonzero"/></clipPath><clipPath id="734c9e7f2e"><path d="M -530.972656 -126.511719 L 5078.8125 -175.46875 L 5088.425781 926.238281 L -521.359375 975.195312 Z M -530.972656 -126.511719 " clip-rule="nonzero"/></clipPath><clipPath id="fe1e0f8cb7"><path d="M 1440 304 L 1727 304 L 1727 567 L 1440 567 Z M 1440 304 " clip-rule="nonzero"/></clipPath><clipPath id="d119a43b82"><path d="M -7.851562 -0.566406 L 4050.242188 -35.980469 L 4057.632812 810.738281 L -0.460938 846.152344 Z M -7.851562 -0.566406 " clip-rule="nonzero"/></clipPath><clipPath id="2fa8f43632"><path d="M -530.972656 -126.511719 L 5078.8125 -175.46875 L 5088.425781 926.238281 L -521.359375 975.195312 Z M -530.972656 -126.511719 " clip-rule="nonzero"/></clipPath><clipPath id="ea2df7b0f1"><path d="M 1727 302 L 1996 302 L 1996 677 L 1727 677 Z M 1727 302 " clip-rule="nonzero"/></clipPath><clipPath id="3a01bf0756"><path d="M -7.851562 -0.566406 L 4050.242188 -35.980469 L 4057.632812 810.738281 L -0.460938 846.152344 Z M -7.851562 -0.566406 " clip-rule="nonzero"/></clipPath><clipPath id="48171e269b"><path d="M -530.972656 -126.511719 L 5078.8125 -175.46875 L 5088.425781 926.238281 L -521.359375 975.195312 Z M -530.972656 -126.511719 " clip-rule="nonzero"/></clipPath><clipPath id="3030755433"><path d="M 1999 294 L 2214 294 L 2214 561 L 1999 561 Z M 1999 294 " clip-rule="nonzero"/></clipPath><clipPath id="3bf2df35a8"><path d="M -7.851562 -0.566406 L 4050.242188 -35.980469 L 4057.632812 810.738281 L -0.460938 846.152344 Z M -7.851562 -0.566406 " clip-rule="nonzero"/></clipPath><clipPath id="4d3c07b315"><path d="M -530.972656 -126.511719 L 5078.8125 -175.46875 L 5088.425781 926.238281 L -521.359375 975.195312 Z M -530.972656 -126.511719 " clip-rule="nonzero"/></clipPath><clipPath id="5c2728ea8e"><path d="M 2223 291 L 2510 291 L 2510 554 L 2223 554 Z M 2223 291 " clip-rule="nonzero"/></clipPath><clipPath id="8e3d3c1402"><path d="M -7.851562 -0.566406 L 4050.242188 -35.980469 L 4057.632812 810.738281 L -0.460938 846.152344 Z M -7.851562 -0.566406 " clip-rule="nonzero"/></clipPath><clipPath id="8f57f051f2"><path d="M -530.972656 -126.511719 L 5078.8125 -175.46875 L 5088.425781 926.238281 L -521.359375 975.195312 Z M -530.972656 -126.511719 " clip-rule="nonzero"/></clipPath><clipPath id="b8c22e8689"><path d="M 2505 288 L 2787 288 L 2787 669 L 2505 669 Z M 2505 288 " clip-rule="nonzero"/></clipPath><clipPath id="f0285b651c"><path d="M -7.851562 -0.566406 L 4050.242188 -35.980469 L 4057.632812 810.738281 L -0.460938 846.152344 Z M -7.851562 -0.566406 " clip-rule="nonzero"/></clipPath><clipPath id="6b864bc514"><path d="M -530.972656 -126.511719 L 5078.8125 -175.46875 L 5088.425781 926.238281 L -521.359375 975.195312 Z M -530.972656 -126.511719 " clip-rule="nonzero"/></clipPath><clipPath id="1d7409d8c9"><path d="M 2806 287 L 3059 287 L 3059 554 L 2806 554 Z M 2806 287 " clip-rule="nonzero"/></clipPath><clipPath id="487167f6ca"><path d="M -7.851562 -0.566406 L 4050.242188 -35.980469 L 4057.632812 810.738281 L -0.460938 846.152344 Z M -7.851562 -0.566406 " clip-rule="nonzero"/></clipPath><clipPath id="ba401891a5"><path d="M -530.972656 -126.511719 L 5078.8125 -175.46875 L 5088.425781 926.238281 L -521.359375 975.195312 Z M -530.972656 -126.511719 " clip-rule="nonzero"/></clipPath><clipPath id="090bab9541"><path d="M 3062 283 L 3348 283 L 3348 546 L 3062 546 Z M 3062 283 " clip-rule="nonzero"/></clipPath><clipPath id="1ff5530fc6"><path d="M -7.851562 -0.566406 L 4050.242188 -35.980469 L 4057.632812 810.738281 L -0.460938 846.152344 Z M -7.851562 -0.566406 " clip-rule="nonzero"/></clipPath><clipPath id="aa2637fffa"><path d="M -530.972656 -126.511719 L 5078.8125 -175.46875 L 5088.425781 926.238281 L -521.359375 975.195312 Z M -530.972656 -126.511719 " clip-rule="nonzero"/></clipPath><clipPath id="948128ed2d"><path d="M 3358 158 L 3641 158 L 3641 549 L 3358 549 Z M 3358 158 " clip-rule="nonzero"/></clipPath><clipPath id="317ec6aab6"><path d="M -7.851562 -0.566406 L 4050.242188 -35.980469 L 4057.632812 810.738281 L -0.460938 846.152344 Z M -7.851562 -0.566406 " clip-rule="nonzero"/></clipPath><clipPath id="7aa4b400a8"><path d="M -530.972656 -126.511719 L 5078.8125 -175.46875 L 5088.425781 926.238281 L -521.359375 975.195312 Z M -530.972656 -126.511719 " clip-rule="nonzero"/></clipPath><clipPath id="2daf3cdf21"><path d="M 3645 280 L 3897 280 L 3897 547 L 3645 547 Z M 3645 280 " clip-rule="nonzero"/></clipPath><clipPath id="d001415496"><path d="M -7.851562 -0.566406 L 4050.242188 -35.980469 L 4057.632812 810.738281 L -0.460938 846.152344 Z M -7.851562 -0.566406 " clip-rule="nonzero"/></clipPath><clipPath id="331d26ec1d"><path d="M -530.972656 -126.511719 L 5078.8125 -175.46875 L 5088.425781 926.238281 L -521.359375 975.195312 Z M -530.972656 -126.511719 " clip-rule="nonzero"/></clipPath></defs><rect x="-405" width="4860" fill="#ffffff" y="-80.999999" height="971.999992" fill-opacity="1"/><rect x="-405" width="4860" fill="#ffffff" y="-80.999999" height="971.999992" fill-opacity="1"/><g clip-path="url(#d945c51eec)"><g clip-path="url(#9164e31059)"><g clip-path="url(#4a9fd263d6)"><path fill="#231f20" d="M 493.128906 340.25 C 508.296875 342.320312 511.570312 349.269531 503.699219 362.46875 C 500.914062 366.976562 497.894531 371.316406 494.628906 375.492188 C 494.460938 375.78125 494.273438 376.0625 494.066406 376.328125 C 493.863281 376.59375 493.640625 376.84375 493.402344 377.082031 C 493.164062 377.320312 492.910156 377.539062 492.644531 377.746094 C 492.375 377.949219 492.097656 378.136719 491.804688 378.304688 C 491.515625 378.472656 491.214844 378.625 490.902344 378.753906 C 490.59375 378.882812 490.277344 378.992188 489.953125 379.082031 C 489.628906 379.167969 489.296875 379.238281 488.964844 379.28125 C 488.632812 379.328125 488.296875 379.355469 487.960938 379.355469 C 487.625 379.359375 487.289062 379.339844 486.957031 379.300781 C 486.621094 379.261719 486.292969 379.199219 485.964844 379.117188 C 485.640625 379.03125 485.320312 378.929688 485.007812 378.804688 C 484.695312 378.679688 484.390625 378.535156 484.097656 378.371094 C 483.804688 378.210938 483.523438 378.027344 483.25 377.828125 C 482.980469 377.628906 482.726562 377.410156 482.484375 377.175781 C 482.242188 376.945312 482.015625 376.695312 481.804688 376.433594 C 481.59375 376.171875 481.402344 375.898438 481.226562 375.609375 C 476.355469 370.359375 471.867188 364.796875 467.765625 358.925781 C 467.15625 358.140625 466.660156 357.292969 466.277344 356.375 C 465.894531 355.460938 465.640625 354.507812 465.515625 353.523438 C 465.386719 352.539062 465.390625 351.554688 465.527344 350.574219 C 465.664062 349.589844 465.925781 348.640625 466.316406 347.730469 C 466.707031 346.816406 467.210938 345.972656 467.828125 345.195312 C 468.445312 344.414062 469.152344 343.734375 469.953125 343.144531 C 470.753906 342.558594 471.617188 342.085938 472.542969 341.730469 C 473.46875 341.375 474.425781 341.144531 475.414062 341.046875 C 481.304688 340.414062 487.207031 340.144531 493.128906 340.25 Z M 493.128906 340.25 " fill-opacity="1" fill-rule="nonzero"/></g></g></g><g clip-path="url(#b996d82c32)"><g clip-path="url(#c72834c4b5)"><g clip-path="url(#414cee9e8a)"><path fill="#231f20" d="M 581.222656 344.527344 C 583.0625 344.652344 584.902344 344.652344 586.746094 344.53125 C 588.585938 344.410156 590.410156 344.167969 592.222656 343.808594 C 594.03125 343.449219 595.808594 342.972656 597.554688 342.378906 C 599.300781 341.785156 601.003906 341.078125 602.65625 340.261719 C 604.3125 339.445312 605.90625 338.523438 607.4375 337.5 C 608.972656 336.472656 610.429688 335.351562 611.816406 334.132812 C 613.203125 332.914062 614.503906 331.609375 615.71875 330.222656 C 616.929688 328.832031 618.050781 327.371094 619.074219 325.835938 C 637.222656 301.164062 629.976562 260.277344 606.1875 238.082031 C 604.714844 236.726562 603.191406 235.441406 601.613281 234.21875 C 600.03125 232.996094 598.402344 231.84375 596.722656 230.761719 C 595.046875 229.679688 593.324219 228.667969 591.558594 227.734375 C 589.796875 226.796875 587.992188 225.9375 586.15625 225.15625 C 584.316406 224.375 582.449219 223.671875 580.550781 223.050781 C 578.652344 222.425781 576.734375 221.886719 574.789062 221.429688 C 572.84375 220.96875 570.882812 220.59375 568.910156 220.304688 C 566.933594 220.011719 564.949219 219.808594 562.953125 219.683594 C 560.960938 219.5625 558.964844 219.527344 556.96875 219.578125 C 554.972656 219.625 552.980469 219.761719 550.996094 219.980469 C 549.007812 220.199219 547.035156 220.5 545.078125 220.890625 C 543.117188 221.277344 541.179688 221.746094 539.257812 222.300781 C 537.339844 222.855469 535.449219 223.488281 533.582031 224.203125 C 531.71875 224.917969 529.886719 225.710938 528.089844 226.582031 C 526.292969 227.453125 524.535156 228.398438 522.816406 229.421875 C 521.101562 230.441406 519.433594 231.535156 517.808594 232.699219 C 494.097656 251.269531 494.292969 273.671875 516.777344 293.398438 C 526.03125 301.671875 535.433594 326.839844 544.691406 335.667969 C 555.527344 346.40625 562.859375 344.6875 581.222656 344.527344 Z M 581.222656 344.527344 " fill-opacity="1" fill-rule="nonzero"/></g></g></g><g clip-path="url(#7d215bce18)"><g clip-path="url(#d4537d6322)"><g clip-path="url(#7d1b9a6e43)"><path fill="#231f20" d="M 384.925781 346.242188 C 383.085938 346.394531 381.246094 346.425781 379.40625 346.332031 C 377.5625 346.242188 375.734375 346.035156 373.917969 345.703125 C 372.105469 345.375 370.320312 344.929688 368.5625 344.363281 C 366.804688 343.800781 365.09375 343.125 363.425781 342.339844 C 361.757812 341.550781 360.148438 340.65625 358.597656 339.660156 C 357.046875 338.660156 355.566406 337.5625 354.160156 336.371094 C 352.753906 335.179688 351.429688 333.898438 350.191406 332.535156 C 348.949219 331.167969 347.804688 329.726562 346.753906 328.210938 C 328.179688 303.859375 334.796875 262.851562 358.105469 240.246094 C 359.554688 238.867188 361.058594 237.550781 362.621094 236.300781 C 364.179688 235.050781 365.789062 233.871094 367.453125 232.757812 C 369.113281 231.644531 370.816406 230.605469 372.566406 229.636719 C 374.316406 228.671875 376.105469 227.78125 377.933594 226.964844 C 379.757812 226.152344 381.617188 225.414062 383.503906 224.757812 C 385.394531 224.105469 387.304688 223.53125 389.242188 223.035156 C 391.183594 222.542969 393.136719 222.136719 395.109375 221.808594 C 397.082031 221.484375 399.066406 221.242188 401.058594 221.085938 C 403.050781 220.929688 405.046875 220.859375 407.046875 220.875 C 409.046875 220.890625 411.042969 220.988281 413.03125 221.171875 C 415.023438 221.359375 417.003906 221.628906 418.972656 221.980469 C 420.9375 222.335938 422.886719 222.769531 424.820312 223.292969 C 426.75 223.8125 428.652344 224.414062 430.535156 225.097656 C 432.414062 225.777344 434.257812 226.539062 436.074219 227.382812 C 437.886719 228.222656 439.664062 229.136719 441.398438 230.128906 C 443.132812 231.121094 444.824219 232.1875 446.46875 233.324219 C 470.410156 251.476562 470.695312 273.878906 448.558594 293.996094 C 439.453125 302.429688 430.492188 327.757812 421.386719 336.742188 C 410.738281 347.667969 403.289062 346.082031 384.925781 346.242188 Z M 384.925781 346.242188 " fill-opacity="1" fill-rule="nonzero"/></g></g></g><g clip-path="url(#fd9f96a9f8)"><g clip-path="url(#211cd78f8d)"><g clip-path="url(#939bbbca58)"><path fill="#231f20" d="M 284.609375 266.871094 C 283.703125 266.753906 282.804688 266.613281 281.90625 266.445312 C 281.011719 266.28125 280.121094 266.09375 279.234375 265.882812 C 278.347656 265.671875 277.464844 265.4375 276.589844 265.179688 C 275.714844 264.921875 274.847656 264.640625 273.988281 264.335938 C 273.128906 264.035156 272.277344 263.710938 271.4375 263.363281 C 270.59375 263.015625 269.761719 262.644531 268.9375 262.253906 C 268.113281 261.863281 267.300781 261.449219 266.5 261.015625 C 265.695312 260.582031 264.90625 260.128906 264.128906 259.652344 C 263.351562 259.179688 262.585938 258.683594 261.835938 258.167969 C 261.082031 257.652344 260.34375 257.117188 259.621094 256.566406 C 258.894531 256.011719 258.1875 255.4375 257.492188 254.847656 C 256.796875 254.257812 256.121094 253.648438 255.457031 253.023438 C 254.796875 252.394531 254.148438 251.753906 253.519531 251.09375 C 252.890625 250.433594 252.28125 249.757812 251.6875 249.066406 C 251.09375 248.371094 250.519531 247.664062 249.964844 246.941406 C 249.40625 246.222656 248.871094 245.484375 248.351562 244.734375 C 247.835938 243.984375 247.335938 243.222656 246.859375 242.445312 C 246.382812 241.667969 245.925781 240.878906 245.488281 240.078125 C 245.050781 239.277344 244.636719 238.46875 244.242188 237.644531 C 243.847656 236.824219 243.476562 235.992188 243.125 235.152344 C 242.777344 234.308594 242.449219 233.460938 242.140625 232.601562 C 241.835938 231.742188 241.550781 230.875 241.292969 230.003906 C 241.03125 229.128906 240.792969 228.25 240.578125 227.363281 C 240.363281 226.476562 240.171875 225.585938 240.003906 224.691406 C 239.835938 223.792969 239.691406 222.894531 239.570312 221.992188 C 239.453125 221.085938 239.355469 220.183594 239.28125 219.273438 C 239.207031 218.363281 239.15625 217.453125 239.132812 216.542969 C 239.105469 215.632812 239.105469 214.722656 239.125 213.808594 C 239.148438 212.898438 239.195312 211.988281 239.261719 211.078125 C 239.332031 210.171875 239.425781 209.265625 239.542969 208.359375 C 239.660156 207.457031 239.800781 206.554688 239.964844 205.660156 C 240.128906 204.761719 240.316406 203.871094 240.527344 202.984375 C 240.765625 201.566406 241.054688 200.160156 241.394531 198.765625 C 241.734375 197.367188 242.125 195.988281 242.566406 194.621094 C 243.011719 193.253906 243.503906 191.90625 244.042969 190.574219 C 244.585938 189.242188 245.175781 187.933594 245.816406 186.648438 C 246.453125 185.359375 247.140625 184.097656 247.871094 182.863281 C 248.601562 181.625 249.378906 180.417969 250.199219 179.238281 C 251.019531 178.058594 251.882812 176.910156 252.789062 175.796875 C 253.695312 174.679688 254.640625 173.601562 255.625 172.554688 C 256.613281 171.507812 257.632812 170.5 258.695312 169.53125 C 259.753906 168.5625 260.847656 167.632812 261.976562 166.742188 C 263.105469 165.851562 264.265625 165.003906 265.457031 164.203125 C 266.644531 163.398438 267.863281 162.640625 269.113281 161.925781 C 270.359375 161.210938 271.628906 160.542969 272.925781 159.925781 C 274.222656 159.304688 275.539062 158.734375 276.878906 158.210938 C 278.21875 157.6875 279.574219 157.214844 280.945312 156.792969 C 282.320312 156.367188 283.707031 155.996094 285.105469 155.675781 C 307.550781 149.605469 325.535156 158.722656 339.640625 175.859375 C 348.917969 186.796875 350.757812 197.523438 337.648438 210.675781 C 326.597656 222.933594 317.78125 236.628906 311.195312 251.765625 C 303.707031 266.980469 301.800781 269.476562 284.609375 266.871094 Z M 284.609375 266.871094 " fill-opacity="1" fill-rule="nonzero"/></g></g></g><g clip-path="url(#7a181d8e84)"><g clip-path="url(#aeb8c35aa5)"><g clip-path="url(#8797bb71a2)"><path fill="#231f20" d="M 683.804688 272.9375 C 667.296875 275.46875 665.441406 273.097656 657.964844 258.101562 C 649.902344 243.117188 640.382812 229.121094 629.410156 216.117188 C 620.132812 205.363281 618.246094 199.503906 624.847656 187.785156 C 625.578125 186.507812 626.363281 185.257812 627.199219 184.042969 C 628.035156 182.828125 628.921875 181.648438 629.851562 180.503906 C 630.785156 179.363281 631.761719 178.257812 632.785156 177.195312 C 633.808594 176.132812 634.875 175.113281 635.980469 174.136719 C 637.085938 173.160156 638.230469 172.234375 639.414062 171.351562 C 640.597656 170.46875 641.8125 169.636719 643.066406 168.855469 C 644.316406 168.074219 645.597656 167.34375 646.90625 166.667969 C 648.21875 165.988281 649.554688 165.367188 650.914062 164.800781 C 652.277344 164.230469 653.660156 163.722656 655.0625 163.265625 C 656.46875 162.8125 657.886719 162.417969 659.324219 162.078125 C 660.757812 161.742188 662.207031 161.460938 663.664062 161.242188 C 665.125 161.023438 666.589844 160.863281 668.0625 160.765625 C 669.535156 160.667969 671.007812 160.628906 672.484375 160.648438 C 673.957031 160.671875 675.429688 160.753906 676.898438 160.894531 C 678.367188 161.039062 679.828125 161.242188 681.277344 161.503906 C 682.730469 161.765625 684.167969 162.085938 685.59375 162.464844 C 687.214844 162.960938 688.8125 163.523438 690.386719 164.148438 C 691.960938 164.777344 693.503906 165.46875 695.019531 166.222656 C 696.535156 166.980469 698.019531 167.796875 699.46875 168.675781 C 700.917969 169.554688 702.328125 170.492188 703.699219 171.484375 C 705.070312 172.480469 706.398438 173.53125 707.679688 174.636719 C 708.964844 175.742188 710.203125 176.898438 711.390625 178.105469 C 712.578125 179.3125 713.714844 180.570312 714.796875 181.871094 C 715.882812 183.171875 716.910156 184.515625 717.882812 185.90625 C 718.855469 187.292969 719.769531 188.714844 720.625 190.179688 C 721.480469 191.640625 722.273438 193.136719 723.003906 194.667969 C 723.734375 196.195312 724.402344 197.75 725.003906 199.335938 C 725.605469 200.917969 726.140625 202.523438 726.609375 204.152344 C 727.078125 205.78125 727.476562 207.425781 727.808594 209.085938 C 728.140625 210.75 728.40625 212.421875 728.597656 214.105469 C 728.792969 215.785156 728.917969 217.476562 728.96875 219.167969 C 729.023438 220.863281 729.007812 222.554688 728.921875 224.246094 C 728.847656 225.746094 728.707031 227.242188 728.5 228.730469 C 728.292969 230.21875 728.023438 231.695312 727.691406 233.160156 C 727.355469 234.625 726.957031 236.074219 726.496094 237.503906 C 726.035156 238.933594 725.515625 240.339844 724.929688 241.726562 C 724.347656 243.109375 723.703125 244.464844 723.003906 245.796875 C 722.300781 247.125 721.542969 248.417969 720.730469 249.683594 C 719.914062 250.945312 719.046875 252.167969 718.125 253.355469 C 717.203125 254.542969 716.230469 255.6875 715.210938 256.789062 C 714.1875 257.890625 713.121094 258.949219 712.007812 259.957031 C 710.894531 260.964844 709.738281 261.925781 708.542969 262.832031 C 707.347656 263.742188 706.113281 264.59375 704.839844 265.394531 C 703.570312 266.195312 702.265625 266.941406 700.929688 267.628906 C 699.59375 268.316406 698.226562 268.941406 696.835938 269.511719 C 695.445312 270.078125 694.03125 270.585938 692.597656 271.03125 C 691.164062 271.476562 689.710938 271.855469 688.242188 272.175781 C 686.773438 272.492188 685.292969 272.746094 683.804688 272.9375 Z M 683.804688 272.9375 " fill-opacity="1" fill-rule="nonzero"/></g></g></g><g clip-path="url(#3c9600234b)"><g clip-path="url(#32a708f9f2)"><g clip-path="url(#fc734b7e9b)"><path fill="#231f20" d="M 609.472656 646.355469 C 601.222656 689.675781 538.882812 700.960938 509.96875 681.011719 C 507.914062 679.523438 506.046875 677.828125 504.363281 675.929688 C 502.679688 674.03125 501.222656 671.972656 499.988281 669.753906 C 498.757812 667.539062 497.777344 665.214844 497.054688 662.78125 C 496.328125 660.351562 495.875 657.867188 495.695312 655.335938 C 503.308594 580.992188 527.503906 512.652344 576.582031 454.75 C 581.277344 449.703125 586.625 445.496094 592.632812 442.121094 C 616.472656 427.773438 628 433.273438 630.441406 460.890625 C 631.753906 474.464844 630.683594 488.433594 630.804688 502.113281 C 633.007812 502.183594 618.605469 598.53125 609.472656 646.355469 Z M 609.472656 646.355469 " fill-opacity="1" fill-rule="nonzero"/></g></g></g><g clip-path="url(#4cfa4d912a)"><g clip-path="url(#e233ba88d0)"><g clip-path="url(#f3fb06e698)"><path fill="#231f20" d="M 472.238281 650.308594 C 475.441406 670.390625 464.695312 680.492188 447.859375 687.246094 C 408.046875 702.101562 368.964844 684.90625 355.671875 644.992188 C 350.925781 630.441406 346.878906 615.703125 343.53125 600.769531 C 340.179688 585.839844 337.539062 570.785156 335.613281 555.601562 C 333.6875 540.421875 332.480469 525.183594 331.992188 509.890625 C 331.503906 494.59375 331.742188 479.3125 332.699219 464.039062 C 334.476562 436.476562 345.992188 430.316406 369.988281 444.339844 C 378 448.921875 385.058594 454.675781 391.167969 461.601562 C 437.824219 515.914062 459.242188 581.46875 472.238281 650.308594 Z M 472.238281 650.308594 " fill-opacity="1" fill-rule="nonzero"/></g></g></g><g clip-path="url(#40def4574c)"><g clip-path="url(#3cf0d816f5)"><g clip-path="url(#32a918889f)"><path fill="#231f20" d="M 239.167969 625.808594 C 240.589844 589.070312 249.488281 556.582031 274.523438 531.753906 C 276.539062 529.945312 278.707031 528.335938 281.023438 526.925781 C 283.339844 525.519531 285.765625 524.335938 288.300781 523.382812 C 290.835938 522.425781 293.4375 521.710938 296.109375 521.238281 C 298.777344 520.765625 301.464844 520.542969 304.175781 520.570312 C 308.398438 520.535156 313.488281 535.640625 315.863281 544.617188 C 323.804688 581.273438 331.375 617.382812 337.019531 654.152344 C 338.09375 661.304688 331.515625 675.59375 326.292969 676.832031 C 306.773438 681.226562 285.148438 686.371094 266.5625 682.21875 C 236.9375 675.316406 243.289062 645.511719 239.167969 625.808594 Z M 239.167969 625.808594 " fill-opacity="1" fill-rule="nonzero"/></g></g></g><g clip-path="url(#a4542bef32)"><g clip-path="url(#038059b8f6)"><g clip-path="url(#9af4dbb467)"><path fill="#231f20" d="M 726.90625 614.296875 C 728.460938 687.003906 691.3125 691.640625 641.671875 674.539062 C 639.824219 673.289062 638.15625 671.828125 636.671875 670.164062 C 635.183594 668.5 633.921875 666.675781 632.886719 664.699219 C 631.851562 662.722656 631.074219 660.648438 630.554688 658.476562 C 630.035156 656.304688 629.789062 654.105469 629.816406 651.871094 C 635.078125 613.355469 642.734375 575.183594 649.46875 536.839844 C 653.671875 513.113281 667.578125 507.484375 686.082031 523.574219 C 689.21875 526.460938 692.199219 529.5 695.027344 532.691406 C 697.859375 535.882812 700.519531 539.207031 703.011719 542.664062 C 705.503906 546.125 707.816406 549.699219 709.949219 553.390625 C 712.082031 557.082031 714.023438 560.875 715.773438 564.761719 C 717.523438 568.648438 719.070312 572.617188 720.421875 576.660156 C 721.769531 580.703125 722.910156 584.804688 723.847656 588.964844 C 724.78125 593.125 725.503906 597.320312 726.015625 601.554688 C 726.527344 605.789062 726.824219 610.035156 726.90625 614.296875 Z M 726.90625 614.296875 " fill-opacity="1" fill-rule="nonzero"/></g></g></g><g clip-path="url(#a39a2f6cbd)"><g clip-path="url(#343c2f96a4)"><g clip-path="url(#c5b29754df)"><path stroke-linecap="butt" transform="matrix(9.181318, -0.0801241, 0.0801204, 9.180888, -530.9743, -126.512772)" fill="none" stroke-linejoin="miter" d="M 105.510075 55.809919 C 106.282469 56.226819 107.105702 56.473547 107.980197 56.550106 C 108.319285 56.599017 108.652648 56.572568 108.979869 56.469906 C 109.202342 56.376966 109.408884 56.257083 109.599923 56.109833 C 109.820001 55.950073 110.029959 55.780013 110.239917 55.609953 " stroke="#231f20" stroke-width="1" stroke-opacity="1" stroke-miterlimit="10"/></g></g></g><g clip-path="url(#0168daf951)"><g clip-path="url(#cb3c695d9b)"><g clip-path="url(#65450827fe)"><path stroke-linecap="butt" transform="matrix(9.181318, -0.0801241, 0.0801204, 9.180888, -530.9743, -126.512772)" fill="none" stroke-linejoin="miter" d="M 115.210055 55.809904 C 114.43803 56.228217 113.614745 56.475041 112.740204 56.549951 C 112.400692 56.598471 112.067368 56.571735 111.739802 56.470166 C 111.519361 56.378892 111.31619 56.258837 111.129862 56.109996 L 110.479874 55.60992 " stroke="#231f20" stroke-width="1" stroke-opacity="1" stroke-miterlimit="10"/></g></g></g><g clip-path="url(#1a95970659)"><g clip-path="url(#fa6111a9d1)"><g clip-path="url(#22327ae47e)"><g fill="#231f20" fill-opacity="1"><g transform="translate(885.876429, 564.891328)"><g><path d="M 114.71875 -231.78125 L 132.9375 -241.359375 C 157.914062 -254.484375 180.445312 -261.132812 200.53125 -261.3125 C 247.15625 -261.71875 270.6875 -237.085938 271.125 -187.421875 L 272.53125 -26.578125 L 297.875 -20.34375 L 298.03125 -2.59375 L 172.40625 -1.5 L 172.25 -19.25 L 194.796875 -25.90625 L 193.484375 -176.25 C 193.347656 -191.3125 190.0625 -203.03125 183.625 -211.40625 C 177.1875 -219.78125 168.054688 -223.914062 156.234375 -223.8125 C 142.597656 -223.695312 128.992188 -220.523438 115.421875 -214.296875 L 117.078125 -25.21875 L 140.25 -18.96875 L 140.40625 -1.21875 L 14.796875 -0.125 L 14.640625 -17.875 L 39.34375 -24.546875 L 37.5625 -228.96875 L 12.75 -235.203125 L 12.59375 -252.953125 L 110.765625 -253.8125 Z M 114.71875 -231.78125 "/></g></g></g></g></g></g><g clip-path="url(#3294b8b96c)"><g clip-path="url(#b216cd7ade)"><g clip-path="url(#734c9e7f2e)"><g fill="#231f20" fill-opacity="1"><g transform="translate(1175.719348, 562.361907)"><g><path d="M 68.3125 -93.953125 C 36.28125 -107.117188 20.09375 -133.242188 19.75 -172.328125 C 19.507812 -200.296875 29.09375 -221.941406 48.5 -237.265625 C 67.914062 -252.585938 95.828125 -260.40625 132.234375 -260.71875 C 139.941406 -260.78125 149.851562 -260.191406 161.96875 -258.953125 C 174.082031 -257.722656 182.925781 -256.234375 188.5 -254.484375 L 248.75 -284.875 L 258.28125 -273.390625 L 227.984375 -229.546875 C 239.222656 -216.015625 244.941406 -197.597656 245.140625 -174.296875 C 245.390625 -145.785156 235.941406 -123.78125 216.796875 -108.28125 C 197.648438 -92.78125 169.613281 -84.867188 132.6875 -84.546875 C 118.519531 -84.429688 104.796875 -85.382812 91.515625 -87.40625 L 85.234375 -66.921875 C 85.628906 -61.722656 88.984375 -56.863281 95.296875 -52.34375 C 101.617188 -47.832031 109.351562 -45.613281 118.5 -45.6875 L 177.390625 -46.203125 C 238.898438 -46.742188 269.863281 -23.34375 270.28125 24 C 270.445312 43.539062 265.257812 60.394531 254.71875 74.5625 C 244.175781 88.738281 228.582031 99.863281 207.9375 107.9375 C 187.289062 116.007812 161.550781 120.179688 130.71875 120.453125 C 94.132812 120.765625 65.753906 115.765625 45.578125 105.453125 C 25.398438 95.140625 15.234375 80.835938 15.078125 62.546875 C 15.003906 54.472656 18.207031 46.640625 24.6875 39.046875 C 31.164062 31.460938 43.769531 22.117188 62.5 11.015625 C 51.882812 6.984375 42.8125 -0.101562 35.28125 -10.25 C 27.75 -20.40625 23.929688 -31.132812 23.828125 -42.4375 Z M 211.53125 42.8125 C 211.382812 25.769531 199.925781 17.347656 177.15625 17.546875 L 91.890625 18.296875 C 76.203125 29.910156 68.421875 42.976562 68.546875 57.5 C 68.648438 68.976562 74.242188 77.539062 85.328125 83.1875 C 96.410156 88.832031 111.546875 91.570312 130.734375 91.40625 C 156.734375 91.175781 176.726562 86.785156 190.71875 78.234375 C 204.71875 69.679688 211.65625 57.875 211.53125 42.8125 Z M 131.921875 -111.4375 C 145.191406 -111.550781 154.738281 -116.789062 160.5625 -127.15625 C 166.394531 -137.519531 169.222656 -153.007812 169.046875 -173.625 C 168.867188 -194.238281 165.820312 -209.40625 159.90625 -219.125 C 153.988281 -228.851562 144.300781 -233.660156 130.84375 -233.546875 C 118.476562 -233.441406 109.515625 -228.472656 103.953125 -218.640625 C 98.390625 -208.816406 95.695312 -193.597656 95.875 -172.984375 C 96.050781 -152.367188 98.960938 -136.929688 104.609375 -126.671875 C 110.265625 -116.410156 119.367188 -111.332031 131.921875 -111.4375 Z M 131.921875 -111.4375 "/></g></g></g></g></g></g><g clip-path="url(#fe1e0f8cb7)"><g clip-path="url(#d119a43b82)"><g clip-path="url(#2fa8f43632)"><g fill="#231f20" fill-opacity="1"><g transform="translate(1434.629484, 560.102432)"><g><path d="M 189.4375 -23.71875 L 171.21875 -14.140625 C 146.238281 -1.015625 123.707031 5.632812 103.625 5.8125 C 57 6.21875 33.46875 -18.410156 33.03125 -68.078125 L 31.640625 -228.921875 L 6.296875 -235.15625 L 6.140625 -252.90625 L 109.15625 -253.796875 L 110.671875 -79.25 C 110.804688 -64.175781 114.09375 -52.453125 120.53125 -44.078125 C 126.96875 -35.710938 136.109375 -31.582031 147.953125 -31.6875 C 161.578125 -31.800781 175.171875 -34.96875 188.734375 -41.1875 L 187.09375 -230.265625 L 163.921875 -236.53125 L 163.765625 -254.28125 L 264.625 -255.15625 L 266.625 -26.53125 L 291.40625 -20.296875 L 291.5625 -2.546875 L 193.390625 -1.6875 Z M 189.4375 -23.71875 "/></g></g></g></g></g></g><g clip-path="url(#ea2df7b0f1)"><g clip-path="url(#3a01bf0756)"><g clip-path="url(#48171e269b)"><g fill="#231f20" fill-opacity="1"><g transform="translate(1724.472426, 557.573011)"><g><path d="M 124.328125 6.71875 L 21.15625 -228.828125 L 3.328125 -235.125 L 3.171875 -252.875 L 132.5625 -254 L 132.71875 -236.25 L 102.65625 -228.984375 L 163.3125 -89.640625 L 215.078125 -230.515625 L 185.421875 -236.71875 L 185.265625 -254.46875 L 267.84375 -255.1875 L 268 -237.4375 L 249.765625 -231.875 L 152.125 14.546875 C 140.894531 43.878906 131.03125 65.171875 122.53125 78.421875 C 114.039062 91.671875 104.578125 101.613281 94.140625 108.25 C 83.710938 114.894531 71.773438 118.273438 58.328125 118.390625 C 43.796875 118.515625 28.984375 116.941406 13.890625 113.671875 L 13.328125 48.578125 L 29.46875 48.4375 L 41.34375 82.21875 C 46.570312 86.300781 53.21875 88.304688 61.28125 88.234375 C 68.101562 88.179688 74.097656 86.515625 79.265625 83.234375 C 84.441406 79.960938 89.289062 75.257812 93.8125 69.125 C 98.332031 62.988281 102.613281 55.460938 106.65625 46.546875 C 110.707031 37.628906 116.597656 24.351562 124.328125 6.71875 Z M 124.328125 6.71875 "/></g></g></g></g></g></g><g clip-path="url(#3030755433)"><g clip-path="url(#3bf2df35a8)"><g clip-path="url(#4d3c07b315)"><g fill="#231f20" fill-opacity="1"><g transform="translate(1983.382539, 555.313537)"><g><path d="M 130.625 -260.171875 C 164.875 -260.472656 189.738281 -251.539062 205.21875 -233.375 C 220.707031 -215.21875 228.617188 -186.867188 228.953125 -148.328125 L 229.15625 -126.265625 L 96.5625 -125.109375 L 96.59375 -120.8125 C 96.820312 -94.09375 99.140625 -75.101562 103.546875 -63.84375 C 107.953125 -52.59375 115.019531 -44.050781 124.75 -38.21875 C 134.488281 -32.382812 147.785156 -29.539062 164.640625 -29.6875 C 180.410156 -29.820312 200.289062 -32.59375 224.28125 -38 L 224.453125 -17.28125 C 214.640625 -11.28125 201.90625 -6.285156 186.25 -2.296875 C 170.601562 1.691406 155.335938 3.753906 140.453125 3.890625 C 99.035156 4.242188 68.320312 -6.289062 48.3125 -27.71875 C 28.3125 -49.15625 18.113281 -82.554688 17.71875 -127.921875 C 17.332031 -172.023438 26.503906 -205.007812 45.234375 -226.875 C 63.972656 -248.738281 92.4375 -259.835938 130.625 -260.171875 Z M 127.90625 -232.96875 C 117.144531 -232.875 109.164062 -226.976562 103.96875 -215.28125 C 98.78125 -203.582031 96.316406 -182.945312 96.578125 -153.375 L 155.21875 -153.875 C 155.007812 -177.894531 154.054688 -194.785156 152.359375 -204.546875 C 150.660156 -214.304688 147.863281 -221.5 143.96875 -226.125 C 140.070312 -230.75 134.71875 -233.03125 127.90625 -232.96875 Z M 127.90625 -232.96875 "/></g></g></g></g></g></g><g clip-path="url(#5c2728ea8e)"><g clip-path="url(#8e3d3c1402)"><g clip-path="url(#8f57f051f2)"><g fill="#231f20" fill-opacity="1"><g transform="translate(2211.359832, 553.32401)"><g><path d="M 114.71875 -231.78125 L 132.9375 -241.359375 C 157.914062 -254.484375 180.445312 -261.132812 200.53125 -261.3125 C 247.15625 -261.71875 270.6875 -237.085938 271.125 -187.421875 L 272.53125 -26.578125 L 297.875 -20.34375 L 298.03125 -2.59375 L 172.40625 -1.5 L 172.25 -19.25 L 194.796875 -25.90625 L 193.484375 -176.25 C 193.347656 -191.3125 190.0625 -203.03125 183.625 -211.40625 C 177.1875 -219.78125 168.054688 -223.914062 156.234375 -223.8125 C 142.597656 -223.695312 128.992188 -220.523438 115.421875 -214.296875 L 117.078125 -25.21875 L 140.25 -18.96875 L 140.40625 -1.21875 L 14.796875 -0.125 L 14.640625 -17.875 L 39.34375 -24.546875 L 37.5625 -228.96875 L 12.75 -235.203125 L 12.59375 -252.953125 L 110.765625 -253.8125 Z M 114.71875 -231.78125 "/></g></g></g></g></g></g><g clip-path="url(#b8c22e8689)"><g clip-path="url(#f0285b651c)"><g clip-path="url(#6b864bc514)"><g fill="#231f20" fill-opacity="1"><g transform="translate(2501.202774, 550.794589)"><g><path d="M 107.921875 -240.875 C 126.992188 -254.125 150.242188 -260.867188 177.671875 -261.109375 C 212.816406 -261.421875 239.039062 -251.335938 256.34375 -230.859375 C 273.65625 -210.390625 282.503906 -177.925781 282.890625 -133.46875 C 283.273438 -89.351562 273.617188 -55.507812 253.921875 -31.9375 C 234.222656 -8.363281 205.726562 3.582031 168.4375 3.90625 C 149.425781 4.070312 130.21875 1.816406 110.8125 -2.859375 C 111.988281 8.972656 112.640625 22.238281 112.765625 36.9375 L 113.25 92.078125 L 150.421875 98.21875 L 150.578125 115.984375 L 8.28125 117.21875 L 8.125 99.453125 L 35.515625 92.765625 L 32.71875 -228.921875 L 4.953125 -235.140625 L 4.796875 -252.890625 L 107.28125 -253.78125 Z M 204.09375 -130.890625 C 203.507812 -197.941406 187.625 -231.332031 156.4375 -231.0625 C 139.757812 -230.914062 124.457031 -227.378906 110.53125 -220.453125 L 112.1875 -29.765625 C 126.738281 -26.117188 141.90625 -24.363281 157.6875 -24.5 C 189.238281 -24.769531 204.707031 -60.234375 204.09375 -130.890625 Z M 204.09375 -130.890625 "/></g></g></g></g></g></g><g clip-path="url(#1d7409d8c9)"><g clip-path="url(#487167f6ca)"><g clip-path="url(#ba401891a5)"><g fill="#231f20" fill-opacity="1"><g transform="translate(2791.045625, 548.265169)"><g><path d="M 144.625 -259.75 C 207.914062 -260.300781 239.765625 -237.269531 240.171875 -190.65625 L 241.609375 -26.3125 L 266.9375 -20.078125 L 267.09375 -2.328125 L 174.015625 -1.515625 L 167.953125 -20.828125 C 154.046875 -11.203125 141.457031 -4.59375 130.1875 -1 C 118.925781 2.59375 107.554688 4.4375 96.078125 4.53125 C 43.890625 4.988281 17.578125 -19.882812 17.140625 -70.09375 C 16.972656 -89.101562 20.695312 -104.332031 28.3125 -115.78125 C 35.925781 -127.238281 46.972656 -135.765625 61.453125 -141.359375 C 75.929688 -146.953125 98.765625 -150.242188 129.953125 -151.234375 L 162.765625 -152.328125 L 162.4375 -189.15625 C 162.175781 -219.632812 149.582031 -234.769531 124.65625 -234.5625 C 109.59375 -234.425781 92.78125 -229.613281 74.21875 -220.125 L 64.265625 -188.578125 L 46.515625 -188.421875 L 45.984375 -249.484375 C 73.023438 -253.835938 92.90625 -256.609375 105.625 -257.796875 C 118.351562 -258.984375 131.351562 -259.632812 144.625 -259.75 Z M 162.96875 -128.375 L 140.390625 -127.390625 C 122.992188 -126.515625 110.96875 -121.832031 104.3125 -113.34375 C 97.664062 -104.863281 94.425781 -91.207031 94.59375 -72.375 C 94.726562 -57.132812 97.515625 -45.953125 102.953125 -38.828125 C 108.398438 -31.703125 115.425781 -28.175781 124.03125 -28.25 C 136.226562 -28.351562 149.472656 -31.601562 163.765625 -38 Z M 162.96875 -128.375 "/></g></g></g></g></g></g><g clip-path="url(#090bab9541)"><g clip-path="url(#1ff5530fc6)"><g clip-path="url(#aa2637fffa)"><g fill="#231f20" fill-opacity="1"><g transform="translate(3049.955829, 546.005694)"><g><path d="M 114.71875 -231.78125 L 132.9375 -241.359375 C 157.914062 -254.484375 180.445312 -261.132812 200.53125 -261.3125 C 247.15625 -261.71875 270.6875 -237.085938 271.125 -187.421875 L 272.53125 -26.578125 L 297.875 -20.34375 L 298.03125 -2.59375 L 172.40625 -1.5 L 172.25 -19.25 L 194.796875 -25.90625 L 193.484375 -176.25 C 193.347656 -191.3125 190.0625 -203.03125 183.625 -211.40625 C 177.1875 -219.78125 168.054688 -223.914062 156.234375 -223.8125 C 142.597656 -223.695312 128.992188 -220.523438 115.421875 -214.296875 L 117.078125 -25.21875 L 140.25 -18.96875 L 140.40625 -1.21875 L 14.796875 -0.125 L 14.640625 -17.875 L 39.34375 -24.546875 L 37.5625 -228.96875 L 12.75 -235.203125 L 12.59375 -252.953125 L 110.765625 -253.8125 Z M 114.71875 -231.78125 "/></g></g></g></g></g></g><g clip-path="url(#948128ed2d)"><g clip-path="url(#317ec6aab6)"><g clip-path="url(#7aa4b400a8)"><g fill="#231f20" fill-opacity="1"><g transform="translate(3339.798681, 543.476273)"><g><path d="M 197.03125 -15.96875 C 187.039062 -9.4375 179.367188 -5.113281 174.015625 -3 C 168.660156 -0.894531 162.578125 0.8125 155.765625 2.125 C 148.960938 3.445312 141.441406 4.144531 133.203125 4.21875 C 95.898438 4.539062 68.007812 -5.925781 49.53125 -27.1875 C 31.050781 -48.457031 21.617188 -81.328125 21.234375 -125.796875 C 20.847656 -169.546875 30.375 -202.890625 49.8125 -225.828125 C 69.25 -248.773438 97.617188 -260.410156 134.921875 -260.734375 C 154.460938 -260.910156 174.203125 -258.664062 194.140625 -254 C 193.015625 -259.914062 192.359375 -273.8125 192.171875 -295.6875 L 191.609375 -359.703125 L 165.75 -365.921875 L 165.59375 -383.671875 L 269.140625 -384.578125 L 272.265625 -26.578125 L 300.015625 -20.359375 L 300.171875 -2.609375 L 202.796875 -1.765625 Z M 100.03125 -128.640625 C 100.320312 -95.109375 104.753906 -69.546875 113.328125 -51.953125 C 121.910156 -34.367188 134.09375 -25.648438 149.875 -25.796875 C 164.207031 -25.921875 179.054688 -29.90625 194.421875 -37.75 L 192.765625 -228.171875 C 178.742188 -231.804688 164.566406 -233.5625 150.234375 -233.4375 C 134.085938 -233.289062 121.609375 -224.347656 112.796875 -206.609375 C 103.984375 -188.867188 99.726562 -162.878906 100.03125 -128.640625 Z M 100.03125 -128.640625 "/></g></g></g></g></g></g><g clip-path="url(#2daf3cdf21)"><g clip-path="url(#d001415496)"><g clip-path="url(#331d26ec1d)"><g fill="#231f20" fill-opacity="1"><g transform="translate(3629.641532, 540.946853)"><g><path d="M 144.625 -259.75 C 207.914062 -260.300781 239.765625 -237.269531 240.171875 -190.65625 L 241.609375 -26.3125 L 266.9375 -20.078125 L 267.09375 -2.328125 L 174.015625 -1.515625 L 167.953125 -20.828125 C 154.046875 -11.203125 141.457031 -4.59375 130.1875 -1 C 118.925781 2.59375 107.554688 4.4375 96.078125 4.53125 C 43.890625 4.988281 17.578125 -19.882812 17.140625 -70.09375 C 16.972656 -89.101562 20.695312 -104.332031 28.3125 -115.78125 C 35.925781 -127.238281 46.972656 -135.765625 61.453125 -141.359375 C 75.929688 -146.953125 98.765625 -150.242188 129.953125 -151.234375 L 162.765625 -152.328125 L 162.4375 -189.15625 C 162.175781 -219.632812 149.582031 -234.769531 124.65625 -234.5625 C 109.59375 -234.425781 92.78125 -229.613281 74.21875 -220.125 L 64.265625 -188.578125 L 46.515625 -188.421875 L 45.984375 -249.484375 C 73.023438 -253.835938 92.90625 -256.609375 105.625 -257.796875 C 118.351562 -258.984375 131.351562 -259.632812 144.625 -259.75 Z M 162.96875 -128.375 L 140.390625 -127.390625 C 122.992188 -126.515625 110.96875 -121.832031 104.3125 -113.34375 C 97.664062 -104.863281 94.425781 -91.207031 94.59375 -72.375 C 94.726562 -57.132812 97.515625 -45.953125 102.953125 -38.828125 C 108.398438 -31.703125 115.425781 -28.175781 124.03125 -28.25 C 136.226562 -28.351562 149.472656 -31.601562 163.765625 -38 Z M 162.96875 -128.375 "/></g></g></g></g></g></g></svg>