<svg xmlns="http://www.w3.org/2000/svg" xmlns:xlink="http://www.w3.org/1999/xlink" width="5400" zoomAndPan="magnify" viewBox="0 0 4050 809.999993" height="1080" preserveAspectRatio="xMidYMid meet" version="1.0"><defs><g/><clipPath id="717737d599"><path d="M 439 340 L 483 340 L 483 380 L 439 380 Z M 439 340 " clip-rule="nonzero"/></clipPath><clipPath id="e5c9adeeb9"><path d="M -7.851562 -0.789062 L 4050.242188 -36.203125 L 4057.632812 810.515625 L -0.464844 845.929688 Z M -7.851562 -0.789062 " clip-rule="nonzero"/></clipPath><clipPath id="a79f4b9130"><path d="M -556.472656 -126.511719 L 5053.3125 -175.46875 L 5062.925781 926.238281 L -546.859375 975.195312 Z M -556.472656 -126.511719 " clip-rule="nonzero"/></clipPath><clipPath id="edde470258"><path d="M 474 219 L 604 219 L 604 345 L 474 345 Z M 474 219 " clip-rule="nonzero"/></clipPath><clipPath id="fe09a2b871"><path d="M -7.851562 -0.789062 L 4050.242188 -36.203125 L 4057.632812 810.515625 L -0.464844 845.929688 Z M -7.851562 -0.789062 " clip-rule="nonzero"/></clipPath><clipPath id="4bd158cedc"><path d="M -556.472656 -126.511719 L 5053.3125 -175.46875 L 5062.925781 926.238281 L -546.859375 975.195312 Z M -556.472656 -126.511719 " clip-rule="nonzero"/></clipPath><clipPath id="5de2704350"><path d="M 310 220 L 440 220 L 440 347 L 310 347 Z M 310 220 " clip-rule="nonzero"/></clipPath><clipPath id="f49226d3f6"><path d="M -7.851562 -0.789062 L 4050.242188 -36.203125 L 4057.632812 810.515625 L -0.464844 845.929688 Z M -7.851562 -0.789062 " clip-rule="nonzero"/></clipPath><clipPath id="3e38051246"><path d="M -556.472656 -126.511719 L 5053.3125 -175.46875 L 5062.925781 926.238281 L -546.859375 975.195312 Z M -556.472656 -126.511719 " clip-rule="nonzero"/></clipPath><clipPath id="93c7048a11"><path d="M 213 153 L 322 153 L 322 268 L 213 268 Z M 213 153 " clip-rule="nonzero"/></clipPath><clipPath id="1ce605f1c2"><path d="M -7.851562 -0.789062 L 4050.242188 -36.203125 L 4057.632812 810.515625 L -0.464844 845.929688 Z M -7.851562 -0.789062 " clip-rule="nonzero"/></clipPath><clipPath id="1f6cdb6b60"><path d="M -556.472656 -126.511719 L 5053.3125 -175.46875 L 5062.925781 926.238281 L -546.859375 975.195312 Z M -556.472656 -126.511719 " clip-rule="nonzero"/></clipPath><clipPath id="fcda8c796e"><path d="M 595 160 L 704 160 L 704 274 L 595 274 Z M 595 160 " clip-rule="nonzero"/></clipPath><clipPath id="d6fa7457e9"><path d="M -7.851562 -0.789062 L 4050.242188 -36.203125 L 4057.632812 810.515625 L -0.464844 845.929688 Z M -7.851562 -0.789062 " clip-rule="nonzero"/></clipPath><clipPath id="7eaaf8a0a1"><path d="M -556.472656 -126.511719 L 5053.3125 -175.46875 L 5062.925781 926.238281 L -546.859375 975.195312 Z M -556.472656 -126.511719 " clip-rule="nonzero"/></clipPath><clipPath id="ee780587f3"><path d="M 470 434 L 606 434 L 606 691 L 470 691 Z M 470 434 " clip-rule="nonzero"/></clipPath><clipPath id="affd9c8527"><path d="M -7.851562 -0.789062 L 4050.242188 -36.203125 L 4057.632812 810.515625 L -0.464844 845.929688 Z M -7.851562 -0.789062 " clip-rule="nonzero"/></clipPath><clipPath id="8c94636c87"><path d="M -556.472656 -126.511719 L 5053.3125 -175.46875 L 5062.925781 926.238281 L -546.859375 975.195312 Z M -556.472656 -126.511719 " clip-rule="nonzero"/></clipPath><clipPath id="bff252f477"><path d="M 306 437 L 448 437 L 448 693 L 306 693 Z M 306 437 " clip-rule="nonzero"/></clipPath><clipPath id="0e7e250650"><path d="M -7.851562 -0.789062 L 4050.242188 -36.203125 L 4057.632812 810.515625 L -0.464844 845.929688 Z M -7.851562 -0.789062 " clip-rule="nonzero"/></clipPath><clipPath id="2879de543c"><path d="M -556.472656 -126.511719 L 5053.3125 -175.46875 L 5062.925781 926.238281 L -546.859375 975.195312 Z M -556.472656 -126.511719 " clip-rule="nonzero"/></clipPath><clipPath id="a6280a6f29"><path d="M 213 520 L 312 520 L 312 684 L 213 684 Z M 213 520 " clip-rule="nonzero"/></clipPath><clipPath id="25e331291e"><path d="M -7.851562 -0.789062 L 4050.242188 -36.203125 L 4057.632812 810.515625 L -0.464844 845.929688 Z M -7.851562 -0.789062 " clip-rule="nonzero"/></clipPath><clipPath id="7bbed192ab"><path d="M -556.472656 -126.511719 L 5053.3125 -175.46875 L 5062.925781 926.238281 L -546.859375 975.195312 Z M -556.472656 -126.511719 " clip-rule="nonzero"/></clipPath><clipPath id="cb20ad958a"><path d="M 604 514 L 702 514 L 702 683 L 604 683 Z M 604 514 " clip-rule="nonzero"/></clipPath><clipPath id="70cf8f3d6b"><path d="M -7.851562 -0.789062 L 4050.242188 -36.203125 L 4057.632812 810.515625 L -0.464844 845.929688 Z M -7.851562 -0.789062 " clip-rule="nonzero"/></clipPath><clipPath id="3e4c160de4"><path d="M -556.472656 -126.511719 L 5053.3125 -175.46875 L 5062.925781 926.238281 L -546.859375 975.195312 Z M -556.472656 -126.511719 " clip-rule="nonzero"/></clipPath><clipPath id="152a142a2d"><path d="M 286 245 L 590 245 L 590 515 L 286 515 Z M 286 245 " clip-rule="nonzero"/></clipPath><clipPath id="587b7d1802"><path d="M -7.851562 -0.789062 L 4050.242188 -36.203125 L 4057.632812 810.515625 L -0.464844 845.929688 Z M -7.851562 -0.789062 " clip-rule="nonzero"/></clipPath><clipPath id="39f0504166"><path d="M -556.472656 -126.511719 L 5053.3125 -175.46875 L 5062.925781 926.238281 L -546.859375 975.195312 Z M -556.472656 -126.511719 " clip-rule="nonzero"/></clipPath><clipPath id="b2b877f169"><path d="M 332 245 L 636 245 L 636 514 L 332 514 Z M 332 245 " clip-rule="nonzero"/></clipPath><clipPath id="7037c73fb4"><path d="M -7.851562 -0.789062 L 4050.242188 -36.203125 L 4057.632812 810.515625 L -0.464844 845.929688 Z M -7.851562 -0.789062 " clip-rule="nonzero"/></clipPath><clipPath id="13325a25ac"><path d="M -556.472656 -126.511719 L 5053.3125 -175.46875 L 5062.925781 926.238281 L -546.859375 975.195312 Z M -556.472656 -126.511719 " clip-rule="nonzero"/></clipPath><clipPath id="9f000871a3"><path d="M 872 302 L 1159 302 L 1159 565 L 872 565 Z M 872 302 " clip-rule="nonzero"/></clipPath><clipPath id="37808d25de"><path d="M -7.851562 -0.789062 L 4050.242188 -36.203125 L 4057.632812 810.515625 L -0.464844 845.929688 Z M -7.851562 -0.789062 " clip-rule="nonzero"/></clipPath><clipPath id="fd69c3d976"><path d="M -556.472656 -126.511719 L 5053.3125 -175.46875 L 5062.925781 926.238281 L -546.859375 975.195312 Z M -556.472656 -126.511719 " clip-rule="nonzero"/></clipPath><clipPath id="b14e327f89"><path d="M 1162 277 L 1422 277 L 1422 684 L 1162 684 Z M 1162 277 " clip-rule="nonzero"/></clipPath><clipPath id="d72a686646"><path d="M -7.851562 -0.789062 L 4050.242188 -36.203125 L 4057.632812 810.515625 L -0.464844 845.929688 Z M -7.851562 -0.789062 " clip-rule="nonzero"/></clipPath><clipPath id="9297b54b42"><path d="M -556.472656 -126.511719 L 5053.3125 -175.46875 L 5062.925781 926.238281 L -546.859375 975.195312 Z M -556.472656 -126.511719 " clip-rule="nonzero"/></clipPath><clipPath id="f550490a2c"><path d="M 1415 304 L 1701 304 L 1701 567 L 1415 567 Z M 1415 304 " clip-rule="nonzero"/></clipPath><clipPath id="d066d8bc94"><path d="M -7.851562 -0.789062 L 4050.242188 -36.203125 L 4057.632812 810.515625 L -0.464844 845.929688 Z M -7.851562 -0.789062 " clip-rule="nonzero"/></clipPath><clipPath id="14e9fbaf90"><path d="M -556.472656 -126.511719 L 5053.3125 -175.46875 L 5062.925781 926.238281 L -546.859375 975.195312 Z M -556.472656 -126.511719 " clip-rule="nonzero"/></clipPath><clipPath id="c209dc4dc9"><path d="M 1702 302 L 1971 302 L 1971 677 L 1702 677 Z M 1702 302 " clip-rule="nonzero"/></clipPath><clipPath id="936ea44d61"><path d="M -7.851562 -0.789062 L 4050.242188 -36.203125 L 4057.632812 810.515625 L -0.464844 845.929688 Z M -7.851562 -0.789062 " clip-rule="nonzero"/></clipPath><clipPath id="ad1054029f"><path d="M -556.472656 -126.511719 L 5053.3125 -175.46875 L 5062.925781 926.238281 L -546.859375 975.195312 Z M -556.472656 -126.511719 " clip-rule="nonzero"/></clipPath><clipPath id="0f3e3d5880"><path d="M 1974 294 L 2189 294 L 2189 561 L 1974 561 Z M 1974 294 " clip-rule="nonzero"/></clipPath><clipPath id="12b3f0a61d"><path d="M -7.851562 -0.789062 L 4050.242188 -36.203125 L 4057.632812 810.515625 L -0.464844 845.929688 Z M -7.851562 -0.789062 " clip-rule="nonzero"/></clipPath><clipPath id="67fca06d8f"><path d="M -556.472656 -126.511719 L 5053.3125 -175.46875 L 5062.925781 926.238281 L -546.859375 975.195312 Z M -556.472656 -126.511719 " clip-rule="nonzero"/></clipPath><clipPath id="14b9cc3127"><path d="M 2198 291 L 2484 291 L 2484 554 L 2198 554 Z M 2198 291 " clip-rule="nonzero"/></clipPath><clipPath id="b8730c52bf"><path d="M -7.851562 -0.789062 L 4050.242188 -36.203125 L 4057.632812 810.515625 L -0.464844 845.929688 Z M -7.851562 -0.789062 " clip-rule="nonzero"/></clipPath><clipPath id="a635e37d72"><path d="M -556.472656 -126.511719 L 5053.3125 -175.46875 L 5062.925781 926.238281 L -546.859375 975.195312 Z M -556.472656 -126.511719 " clip-rule="nonzero"/></clipPath><clipPath id="fe2eaf6b07"><path d="M 2480 288 L 2761 288 L 2761 669 L 2480 669 Z M 2480 288 " clip-rule="nonzero"/></clipPath><clipPath id="a7ae891a2e"><path d="M -7.851562 -0.789062 L 4050.242188 -36.203125 L 4057.632812 810.515625 L -0.464844 845.929688 Z M -7.851562 -0.789062 " clip-rule="nonzero"/></clipPath><clipPath id="a55b189e49"><path d="M -556.472656 -126.511719 L 5053.3125 -175.46875 L 5062.925781 926.238281 L -546.859375 975.195312 Z M -556.472656 -126.511719 " clip-rule="nonzero"/></clipPath><clipPath id="55dafe219a"><path d="M 2781 287 L 3033 287 L 3033 554 L 2781 554 Z M 2781 287 " clip-rule="nonzero"/></clipPath><clipPath id="60b460c4af"><path d="M -7.851562 -0.789062 L 4050.242188 -36.203125 L 4057.632812 810.515625 L -0.464844 845.929688 Z M -7.851562 -0.789062 " clip-rule="nonzero"/></clipPath><clipPath id="c15ed0d690"><path d="M -556.472656 -126.511719 L 5053.3125 -175.46875 L 5062.925781 926.238281 L -546.859375 975.195312 Z M -556.472656 -126.511719 " clip-rule="nonzero"/></clipPath><clipPath id="a12b53448f"><path d="M 3036 283 L 3323 283 L 3323 546 L 3036 546 Z M 3036 283 " clip-rule="nonzero"/></clipPath><clipPath id="53e2f18b64"><path d="M -7.851562 -0.789062 L 4050.242188 -36.203125 L 4057.632812 810.515625 L -0.464844 845.929688 Z M -7.851562 -0.789062 " clip-rule="nonzero"/></clipPath><clipPath id="6b5a73c1bb"><path d="M -556.472656 -126.511719 L 5053.3125 -175.46875 L 5062.925781 926.238281 L -546.859375 975.195312 Z M -556.472656 -126.511719 " clip-rule="nonzero"/></clipPath><clipPath id="e0fb515bfe"><path d="M 3333 158 L 3615 158 L 3615 549 L 3333 549 Z M 3333 158 " clip-rule="nonzero"/></clipPath><clipPath id="592b662033"><path d="M -7.851562 -0.789062 L 4050.242188 -36.203125 L 4057.632812 810.515625 L -0.464844 845.929688 Z M -7.851562 -0.789062 " clip-rule="nonzero"/></clipPath><clipPath id="c93509ad5e"><path d="M -556.472656 -126.511719 L 5053.3125 -175.46875 L 5062.925781 926.238281 L -546.859375 975.195312 Z M -556.472656 -126.511719 " clip-rule="nonzero"/></clipPath><clipPath id="d1587f6e11"><path d="M 3619 280 L 3872 280 L 3872 547 L 3619 547 Z M 3619 280 " clip-rule="nonzero"/></clipPath><clipPath id="df8e91e33e"><path d="M -7.851562 -0.789062 L 4050.242188 -36.203125 L 4057.632812 810.515625 L -0.464844 845.929688 Z M -7.851562 -0.789062 " clip-rule="nonzero"/></clipPath><clipPath id="739dec853c"><path d="M -556.472656 -126.511719 L 5053.3125 -175.46875 L 5062.925781 926.238281 L -546.859375 975.195312 Z M -556.472656 -126.511719 " clip-rule="nonzero"/></clipPath></defs><rect x="-405" width="4860" fill="#ffffff" y="-80.999999" height="971.999992" fill-opacity="1"/><rect x="-405" width="4860" fill="#ffffff" y="-80.999999" height="971.999992" fill-opacity="1"/><g clip-path="url(#717737d599)"><g clip-path="url(#e5c9adeeb9)"><g clip-path="url(#a79f4b9130)"><path fill="#231f20" d="M 467.628906 340.25 C 482.796875 342.320312 486.070312 349.269531 478.199219 362.46875 C 475.414062 366.976562 472.394531 371.316406 469.128906 375.492188 C 468.960938 375.78125 468.773438 376.0625 468.566406 376.328125 C 468.359375 376.59375 468.140625 376.84375 467.902344 377.082031 C 467.664062 377.320312 467.410156 377.539062 467.144531 377.746094 C 466.875 377.949219 466.597656 378.136719 466.304688 378.304688 C 466.015625 378.472656 465.714844 378.625 465.402344 378.753906 C 465.09375 378.882812 464.777344 378.992188 464.453125 379.082031 C 464.128906 379.167969 463.796875 379.238281 463.464844 379.28125 C 463.132812 379.328125 462.796875 379.355469 462.460938 379.355469 C 462.125 379.359375 461.789062 379.339844 461.457031 379.300781 C 461.121094 379.261719 460.792969 379.199219 460.464844 379.117188 C 460.140625 379.03125 459.820312 378.929688 459.507812 378.804688 C 459.195312 378.679688 458.890625 378.535156 458.597656 378.371094 C 458.304688 378.210938 458.023438 378.027344 457.75 377.828125 C 457.480469 377.628906 457.226562 377.410156 456.984375 377.175781 C 456.738281 376.945312 456.515625 376.695312 456.304688 376.433594 C 456.09375 376.171875 455.902344 375.898438 455.726562 375.609375 C 450.855469 370.359375 446.367188 364.796875 442.265625 358.925781 C 441.65625 358.140625 441.160156 357.292969 440.777344 356.375 C 440.394531 355.460938 440.140625 354.507812 440.011719 353.523438 C 439.886719 352.539062 439.890625 351.554688 440.027344 350.574219 C 440.164062 349.589844 440.425781 348.640625 440.816406 347.730469 C 441.207031 346.816406 441.710938 345.972656 442.328125 345.195312 C 442.945312 344.414062 443.652344 343.734375 444.453125 343.144531 C 445.253906 342.558594 446.117188 342.085938 447.042969 341.730469 C 447.96875 341.375 448.925781 341.144531 449.914062 341.046875 C 455.804688 340.414062 461.707031 340.144531 467.628906 340.25 Z M 467.628906 340.25 " fill-opacity="1" fill-rule="nonzero"/></g></g></g><g clip-path="url(#edde470258)"><g clip-path="url(#fe09a2b871)"><g clip-path="url(#4bd158cedc)"><path fill="#231f20" d="M 555.722656 344.527344 C 557.5625 344.652344 559.402344 344.652344 561.246094 344.53125 C 563.085938 344.410156 564.910156 344.167969 566.722656 343.808594 C 568.53125 343.449219 570.308594 342.972656 572.054688 342.378906 C 573.800781 341.785156 575.503906 341.078125 577.15625 340.261719 C 578.8125 339.445312 580.40625 338.523438 581.9375 337.5 C 583.472656 336.472656 584.929688 335.351562 586.316406 334.132812 C 587.703125 332.914062 589.003906 331.609375 590.214844 330.222656 C 591.429688 328.832031 592.550781 327.371094 593.574219 325.835938 C 611.722656 301.164062 604.476562 260.277344 580.6875 238.082031 C 579.214844 236.726562 577.691406 235.441406 576.113281 234.21875 C 574.53125 232.996094 572.902344 231.84375 571.222656 230.761719 C 569.546875 229.679688 567.824219 228.667969 566.058594 227.734375 C 564.296875 226.796875 562.492188 225.9375 560.65625 225.15625 C 558.816406 224.375 556.949219 223.671875 555.050781 223.050781 C 553.152344 222.425781 551.234375 221.886719 549.289062 221.429688 C 547.34375 220.96875 545.382812 220.59375 543.410156 220.304688 C 541.433594 220.011719 539.449219 219.808594 537.453125 219.683594 C 535.460938 219.5625 533.464844 219.527344 531.46875 219.578125 C 529.472656 219.625 527.480469 219.761719 525.496094 219.980469 C 523.507812 220.199219 521.535156 220.5 519.578125 220.890625 C 517.617188 221.277344 515.679688 221.746094 513.757812 222.300781 C 511.839844 222.855469 509.949219 223.488281 508.082031 224.203125 C 506.21875 224.917969 504.386719 225.710938 502.589844 226.582031 C 500.792969 227.453125 499.035156 228.398438 497.316406 229.421875 C 495.601562 230.441406 493.933594 231.535156 492.308594 232.699219 C 468.597656 251.269531 468.792969 273.671875 491.277344 293.398438 C 500.53125 301.671875 509.933594 326.839844 519.191406 335.667969 C 530.027344 346.40625 537.359375 344.6875 555.722656 344.527344 Z M 555.722656 344.527344 " fill-opacity="1" fill-rule="nonzero"/></g></g></g><g clip-path="url(#5de2704350)"><g clip-path="url(#f49226d3f6)"><g clip-path="url(#3e38051246)"><path fill="#231f20" d="M 359.425781 346.242188 C 357.585938 346.394531 355.746094 346.425781 353.90625 346.332031 C 352.0625 346.242188 350.234375 346.035156 348.417969 345.703125 C 346.605469 345.375 344.820312 344.929688 343.0625 344.363281 C 341.304688 343.800781 339.59375 343.125 337.925781 342.339844 C 336.257812 341.550781 334.648438 340.65625 333.097656 339.660156 C 331.546875 338.660156 330.066406 337.5625 328.660156 336.371094 C 327.253906 335.179688 325.929688 333.898438 324.691406 332.535156 C 323.449219 331.167969 322.304688 329.726562 321.253906 328.210938 C 302.679688 303.859375 309.296875 262.851562 332.605469 240.246094 C 334.054688 238.867188 335.558594 237.550781 337.121094 236.300781 C 338.679688 235.050781 340.289062 233.871094 341.953125 232.757812 C 343.613281 231.644531 345.316406 230.605469 347.066406 229.636719 C 348.816406 228.671875 350.605469 227.78125 352.433594 226.964844 C 354.257812 226.152344 356.113281 225.414062 358.003906 224.757812 C 359.894531 224.105469 361.804688 223.53125 363.742188 223.035156 C 365.679688 222.542969 367.636719 222.136719 369.609375 221.808594 C 371.582031 221.484375 373.566406 221.242188 375.558594 221.085938 C 377.550781 220.929688 379.546875 220.859375 381.546875 220.875 C 383.546875 220.890625 385.542969 220.988281 387.53125 221.171875 C 389.523438 221.359375 391.503906 221.628906 393.472656 221.980469 C 395.4375 222.335938 397.386719 222.769531 399.320312 223.292969 C 401.25 223.8125 403.152344 224.414062 405.035156 225.097656 C 406.914062 225.777344 408.757812 226.539062 410.574219 227.382812 C 412.386719 228.222656 414.164062 229.136719 415.898438 230.128906 C 417.632812 231.121094 419.324219 232.1875 420.96875 233.324219 C 444.910156 251.476562 445.195312 273.878906 423.058594 293.996094 C 413.953125 302.429688 404.992188 327.757812 395.886719 336.742188 C 385.238281 347.667969 377.789062 346.082031 359.425781 346.242188 Z M 359.425781 346.242188 " fill-opacity="1" fill-rule="nonzero"/></g></g></g><g clip-path="url(#93c7048a11)"><g clip-path="url(#1ce605f1c2)"><g clip-path="url(#1f6cdb6b60)"><path fill="#231f20" d="M 259.109375 266.871094 C 258.203125 266.753906 257.304688 266.613281 256.40625 266.445312 C 255.511719 266.28125 254.617188 266.09375 253.730469 265.882812 C 252.84375 265.671875 251.964844 265.4375 251.089844 265.179688 C 250.214844 264.921875 249.347656 264.640625 248.488281 264.335938 C 247.628906 264.035156 246.777344 263.710938 245.9375 263.363281 C 245.09375 263.015625 244.261719 262.644531 243.4375 262.253906 C 242.613281 261.863281 241.800781 261.449219 241 261.015625 C 240.195312 260.582031 239.40625 260.128906 238.628906 259.652344 C 237.851562 259.179688 237.085938 258.683594 236.332031 258.167969 C 235.582031 257.652344 234.84375 257.117188 234.121094 256.566406 C 233.394531 256.011719 232.6875 255.4375 231.992188 254.847656 C 231.296875 254.257812 230.621094 253.648438 229.957031 253.023438 C 229.296875 252.394531 228.648438 251.753906 228.019531 251.09375 C 227.390625 250.433594 226.78125 249.757812 226.1875 249.066406 C 225.59375 248.371094 225.019531 247.664062 224.464844 246.941406 C 223.90625 246.222656 223.371094 245.484375 222.851562 244.734375 C 222.335938 243.984375 221.835938 243.222656 221.359375 242.445312 C 220.882812 241.667969 220.425781 240.878906 219.988281 240.078125 C 219.550781 239.277344 219.136719 238.46875 218.742188 237.644531 C 218.347656 236.824219 217.976562 235.992188 217.625 235.152344 C 217.277344 234.308594 216.949219 233.460938 216.640625 232.601562 C 216.335938 231.742188 216.050781 230.875 215.792969 230.003906 C 215.53125 229.128906 215.292969 228.25 215.078125 227.363281 C 214.863281 226.476562 214.671875 225.585938 214.503906 224.691406 C 214.335938 223.792969 214.191406 222.894531 214.070312 221.992188 C 213.953125 221.085938 213.855469 220.183594 213.78125 219.273438 C 213.707031 218.363281 213.65625 217.453125 213.632812 216.542969 C 213.605469 215.632812 213.605469 214.722656 213.625 213.808594 C 213.648438 212.898438 213.695312 211.988281 213.761719 211.078125 C 213.832031 210.171875 213.925781 209.265625 214.042969 208.359375 C 214.160156 207.457031 214.300781 206.554688 214.464844 205.660156 C 214.628906 204.761719 214.816406 203.871094 215.027344 202.984375 C 215.265625 201.566406 215.554688 200.160156 215.894531 198.765625 C 216.234375 197.367188 216.625 195.988281 217.066406 194.621094 C 217.511719 193.253906 218.003906 191.90625 218.542969 190.574219 C 219.085938 189.242188 219.675781 187.933594 220.316406 186.648438 C 220.953125 185.359375 221.640625 184.097656 222.371094 182.863281 C 223.101562 181.625 223.878906 180.417969 224.699219 179.238281 C 225.519531 178.058594 226.382812 176.910156 227.289062 175.796875 C 228.195312 174.679688 229.140625 173.601562 230.125 172.554688 C 231.113281 171.507812 232.132812 170.5 233.195312 169.53125 C 234.253906 168.5625 235.347656 167.632812 236.476562 166.742188 C 237.605469 165.851562 238.765625 165.003906 239.953125 164.203125 C 241.144531 163.398438 242.363281 162.640625 243.613281 161.925781 C 244.859375 161.210938 246.128906 160.542969 247.425781 159.925781 C 248.722656 159.304688 250.039062 158.734375 251.378906 158.210938 C 252.714844 157.6875 254.074219 157.214844 255.445312 156.792969 C 256.820312 156.367188 258.207031 155.996094 259.605469 155.675781 C 282.050781 149.605469 300.035156 158.722656 314.140625 175.859375 C 323.417969 186.796875 325.257812 197.523438 312.148438 210.675781 C 301.097656 222.933594 292.28125 236.628906 285.695312 251.765625 C 278.207031 266.980469 276.300781 269.476562 259.109375 266.871094 Z M 259.109375 266.871094 " fill-opacity="1" fill-rule="nonzero"/></g></g></g><g clip-path="url(#fcda8c796e)"><g clip-path="url(#d6fa7457e9)"><g clip-path="url(#7eaaf8a0a1)"><path fill="#231f20" d="M 658.304688 272.9375 C 641.796875 275.46875 639.941406 273.097656 632.464844 258.101562 C 624.402344 243.117188 614.882812 229.121094 603.910156 216.117188 C 594.632812 205.363281 592.746094 199.503906 599.347656 187.785156 C 600.078125 186.507812 600.863281 185.257812 601.699219 184.042969 C 602.535156 182.828125 603.421875 181.648438 604.351562 180.503906 C 605.285156 179.363281 606.261719 178.257812 607.285156 177.195312 C 608.308594 176.132812 609.375 175.113281 610.480469 174.136719 C 611.585938 173.160156 612.730469 172.234375 613.914062 171.351562 C 615.097656 170.46875 616.3125 169.636719 617.5625 168.855469 C 618.816406 168.074219 620.097656 167.34375 621.40625 166.667969 C 622.71875 165.988281 624.054688 165.367188 625.414062 164.800781 C 626.777344 164.230469 628.160156 163.722656 629.5625 163.265625 C 630.96875 162.8125 632.386719 162.417969 633.824219 162.078125 C 635.257812 161.742188 636.707031 161.460938 638.164062 161.242188 C 639.625 161.023438 641.089844 160.863281 642.5625 160.765625 C 644.035156 160.667969 645.507812 160.628906 646.980469 160.648438 C 648.457031 160.671875 649.929688 160.753906 651.398438 160.894531 C 652.867188 161.039062 654.324219 161.242188 655.777344 161.503906 C 657.230469 161.765625 658.667969 162.085938 660.09375 162.464844 C 661.714844 162.960938 663.3125 163.523438 664.886719 164.148438 C 666.457031 164.777344 668.003906 165.46875 669.519531 166.222656 C 671.035156 166.980469 672.519531 167.796875 673.96875 168.675781 C 675.417969 169.554688 676.828125 170.492188 678.199219 171.484375 C 679.570312 172.480469 680.898438 173.53125 682.179688 174.636719 C 683.464844 175.742188 684.703125 176.898438 685.890625 178.105469 C 687.078125 179.3125 688.214844 180.570312 689.296875 181.871094 C 690.382812 183.171875 691.410156 184.515625 692.382812 185.90625 C 693.355469 187.292969 694.269531 188.714844 695.125 190.179688 C 695.980469 191.640625 696.773438 193.136719 697.503906 194.667969 C 698.234375 196.195312 698.898438 197.75 699.503906 199.335938 C 700.105469 200.917969 700.640625 202.523438 701.109375 204.152344 C 701.578125 205.78125 701.976562 207.425781 702.308594 209.085938 C 702.640625 210.75 702.90625 212.421875 703.097656 214.105469 C 703.292969 215.785156 703.417969 217.476562 703.46875 219.167969 C 703.523438 220.863281 703.507812 222.554688 703.421875 224.246094 C 703.347656 225.746094 703.207031 227.242188 703 228.730469 C 702.792969 230.21875 702.523438 231.695312 702.191406 233.160156 C 701.855469 234.625 701.457031 236.074219 700.996094 237.503906 C 700.535156 238.933594 700.015625 240.339844 699.429688 241.726562 C 698.847656 243.109375 698.203125 244.464844 697.503906 245.796875 C 696.800781 247.125 696.042969 248.417969 695.230469 249.683594 C 694.414062 250.945312 693.546875 252.167969 692.625 253.355469 C 691.703125 254.542969 690.730469 255.6875 689.710938 256.789062 C 688.6875 257.890625 687.621094 258.949219 686.507812 259.957031 C 685.394531 260.964844 684.238281 261.925781 683.042969 262.832031 C 681.847656 263.742188 680.613281 264.59375 679.339844 265.394531 C 678.070312 266.195312 676.765625 266.941406 675.429688 267.628906 C 674.09375 268.316406 672.726562 268.941406 671.335938 269.511719 C 669.945312 270.078125 668.53125 270.585938 667.097656 271.03125 C 665.664062 271.476562 664.210938 271.855469 662.742188 272.175781 C 661.273438 272.492188 659.792969 272.746094 658.304688 272.9375 Z M 658.304688 272.9375 " fill-opacity="1" fill-rule="nonzero"/></g></g></g><g clip-path="url(#ee780587f3)"><g clip-path="url(#affd9c8527)"><g clip-path="url(#8c94636c87)"><path fill="#231f20" d="M 583.972656 646.355469 C 575.722656 689.675781 513.382812 700.960938 484.46875 681.011719 C 482.414062 679.523438 480.546875 677.828125 478.863281 675.929688 C 477.179688 674.03125 475.722656 671.972656 474.488281 669.753906 C 473.257812 667.539062 472.277344 665.214844 471.554688 662.78125 C 470.828125 660.351562 470.375 657.867188 470.195312 655.335938 C 477.808594 580.992188 502.003906 512.652344 551.082031 454.75 C 555.777344 449.703125 561.125 445.496094 567.132812 442.121094 C 590.972656 427.773438 602.5 433.273438 604.941406 460.890625 C 606.253906 474.464844 605.183594 488.433594 605.304688 502.113281 C 607.507812 502.183594 593.105469 598.53125 583.972656 646.355469 Z M 583.972656 646.355469 " fill-opacity="1" fill-rule="nonzero"/></g></g></g><g clip-path="url(#bff252f477)"><g clip-path="url(#0e7e250650)"><g clip-path="url(#2879de543c)"><path fill="#231f20" d="M 446.738281 650.308594 C 449.941406 670.390625 439.195312 680.492188 422.359375 687.246094 C 382.546875 702.101562 343.464844 684.90625 330.171875 644.992188 C 325.425781 630.441406 321.378906 615.703125 318.03125 600.769531 C 314.679688 585.839844 312.039062 570.785156 310.113281 555.601562 C 308.1875 540.421875 306.980469 525.183594 306.492188 509.890625 C 306.003906 494.59375 306.238281 479.3125 307.199219 464.039062 C 308.976562 436.476562 320.492188 430.316406 344.488281 444.339844 C 352.5 448.921875 359.558594 454.675781 365.664062 461.601562 C 412.324219 515.914062 433.742188 581.46875 446.738281 650.308594 Z M 446.738281 650.308594 " fill-opacity="1" fill-rule="nonzero"/></g></g></g><g clip-path="url(#a6280a6f29)"><g clip-path="url(#25e331291e)"><g clip-path="url(#7bbed192ab)"><path fill="#231f20" d="M 213.667969 625.808594 C 215.089844 589.070312 223.988281 556.582031 249.023438 531.753906 C 251.039062 529.945312 253.207031 528.335938 255.523438 526.925781 C 257.839844 525.519531 260.265625 524.335938 262.800781 523.382812 C 265.335938 522.425781 267.9375 521.710938 270.609375 521.238281 C 273.277344 520.765625 275.964844 520.542969 278.675781 520.570312 C 282.898438 520.535156 287.988281 535.640625 290.363281 544.617188 C 298.304688 581.273438 305.875 617.382812 311.519531 654.152344 C 312.59375 661.304688 306.015625 675.59375 300.792969 676.832031 C 281.273438 681.226562 259.648438 686.371094 241.0625 682.21875 C 211.4375 675.316406 217.789062 645.511719 213.667969 625.808594 Z M 213.667969 625.808594 " fill-opacity="1" fill-rule="nonzero"/></g></g></g><g clip-path="url(#cb20ad958a)"><g clip-path="url(#70cf8f3d6b)"><g clip-path="url(#3e4c160de4)"><path fill="#231f20" d="M 701.40625 614.296875 C 702.960938 687.003906 665.8125 691.640625 616.171875 674.539062 C 614.324219 673.289062 612.65625 671.828125 611.171875 670.164062 C 609.683594 668.5 608.421875 666.675781 607.386719 664.699219 C 606.351562 662.722656 605.574219 660.648438 605.054688 658.476562 C 604.535156 656.304688 604.289062 654.105469 604.3125 651.871094 C 609.578125 613.355469 617.234375 575.183594 623.96875 536.839844 C 628.171875 513.113281 642.078125 507.484375 660.582031 523.574219 C 663.71875 526.460938 666.699219 529.5 669.527344 532.691406 C 672.359375 535.882812 675.019531 539.207031 677.511719 542.664062 C 680.003906 546.125 682.316406 549.699219 684.449219 553.390625 C 686.582031 557.082031 688.523438 560.875 690.273438 564.761719 C 692.023438 568.648438 693.570312 572.617188 694.921875 576.660156 C 696.269531 580.703125 697.410156 584.804688 698.347656 588.964844 C 699.28125 593.125 700.003906 597.320312 700.515625 601.554688 C 701.027344 605.789062 701.324219 610.035156 701.40625 614.296875 Z M 701.40625 614.296875 " fill-opacity="1" fill-rule="nonzero"/></g></g></g><g clip-path="url(#152a142a2d)"><g clip-path="url(#587b7d1802)"><g clip-path="url(#39f0504166)"><path stroke-linecap="butt" transform="matrix(9.181319, -0.0801242, 0.0801204, 9.180888, -556.474515, -126.512772)" fill="none" stroke-linejoin="miter" d="M 105.510087 55.809919 C 106.282482 56.226819 107.105714 56.473547 107.980209 56.550106 C 108.319297 56.599017 108.65266 56.572569 108.979881 56.469906 C 109.202354 56.376967 109.408896 56.257083 109.599934 56.109833 C 109.820013 55.950073 110.029971 55.780013 110.239928 55.609953 " stroke="#231f20" stroke-width="1" stroke-opacity="1" stroke-miterlimit="10"/></g></g></g><g clip-path="url(#b2b877f169)"><g clip-path="url(#7037c73fb4)"><g clip-path="url(#13325a25ac)"><path stroke-linecap="butt" transform="matrix(9.181319, -0.0801242, 0.0801204, 9.180888, -556.474515, -126.512772)" fill="none" stroke-linejoin="miter" d="M 115.210066 55.809904 C 114.438041 56.228217 113.614757 56.475041 112.739791 56.549948 C 112.400704 56.598471 112.067379 56.571735 111.739813 56.470166 C 111.519373 56.378892 111.316201 56.258837 111.129874 56.109996 L 110.479886 55.60992 " stroke="#231f20" stroke-width="1" stroke-opacity="1" stroke-miterlimit="10"/></g></g></g><g clip-path="url(#9f000871a3)"><g clip-path="url(#37808d25de)"><g clip-path="url(#fd69c3d976)"><g fill="#231f20" fill-opacity="1"><g transform="translate(860.37643, 564.891328)"><g><path d="M 114.71875 -231.78125 L 132.9375 -241.359375 C 157.914062 -254.484375 180.445312 -261.132812 200.53125 -261.3125 C 247.15625 -261.71875 270.6875 -237.085938 271.125 -187.421875 L 272.53125 -26.578125 L 297.875 -20.34375 L 298.03125 -2.59375 L 172.40625 -1.5 L 172.25 -19.25 L 194.796875 -25.90625 L 193.484375 -176.25 C 193.347656 -191.3125 190.0625 -203.03125 183.625 -211.40625 C 177.1875 -219.78125 168.054688 -223.914062 156.234375 -223.8125 C 142.597656 -223.695312 128.992188 -220.523438 115.421875 -214.296875 L 117.078125 -25.21875 L 140.25 -18.96875 L 140.40625 -1.21875 L 14.796875 -0.125 L 14.640625 -17.875 L 39.34375 -24.546875 L 37.5625 -228.96875 L 12.75 -235.203125 L 12.59375 -252.953125 L 110.765625 -253.8125 Z M 114.71875 -231.78125 "/></g></g></g></g></g></g><g clip-path="url(#b14e327f89)"><g clip-path="url(#d72a686646)"><g clip-path="url(#9297b54b42)"><g fill="#231f20" fill-opacity="1"><g transform="translate(1150.219386, 562.361906)"><g><path d="M 68.3125 -93.953125 C 36.28125 -107.117188 20.09375 -133.242188 19.75 -172.328125 C 19.507812 -200.296875 29.09375 -221.941406 48.5 -237.265625 C 67.914062 -252.585938 95.828125 -260.40625 132.234375 -260.71875 C 139.941406 -260.78125 149.851562 -260.191406 161.96875 -258.953125 C 174.082031 -257.722656 182.925781 -256.234375 188.5 -254.484375 L 248.75 -284.875 L 258.28125 -273.390625 L 227.984375 -229.546875 C 239.222656 -216.015625 244.941406 -197.597656 245.140625 -174.296875 C 245.390625 -145.785156 235.941406 -123.78125 216.796875 -108.28125 C 197.648438 -92.78125 169.613281 -84.867188 132.6875 -84.546875 C 118.519531 -84.429688 104.796875 -85.382812 91.515625 -87.40625 L 85.234375 -66.921875 C 85.628906 -61.722656 88.984375 -56.863281 95.296875 -52.34375 C 101.617188 -47.832031 109.351562 -45.613281 118.5 -45.6875 L 177.390625 -46.203125 C 238.898438 -46.742188 269.863281 -23.34375 270.28125 24 C 270.445312 43.539062 265.257812 60.394531 254.71875 74.5625 C 244.175781 88.738281 228.582031 99.863281 207.9375 107.9375 C 187.289062 116.007812 161.550781 120.179688 130.71875 120.453125 C 94.132812 120.765625 65.753906 115.765625 45.578125 105.453125 C 25.398438 95.140625 15.234375 80.835938 15.078125 62.546875 C 15.003906 54.472656 18.207031 46.640625 24.6875 39.046875 C 31.164062 31.460938 43.769531 22.117188 62.5 11.015625 C 51.882812 6.984375 42.8125 -0.101562 35.28125 -10.25 C 27.75 -20.40625 23.929688 -31.132812 23.828125 -42.4375 Z M 211.53125 42.8125 C 211.382812 25.769531 199.925781 17.347656 177.15625 17.546875 L 91.890625 18.296875 C 76.203125 29.910156 68.421875 42.976562 68.546875 57.5 C 68.648438 68.976562 74.242188 77.539062 85.328125 83.1875 C 96.410156 88.832031 111.546875 91.570312 130.734375 91.40625 C 156.734375 91.175781 176.726562 86.785156 190.71875 78.234375 C 204.71875 69.679688 211.65625 57.875 211.53125 42.8125 Z M 131.921875 -111.4375 C 145.191406 -111.550781 154.738281 -116.789062 160.5625 -127.15625 C 166.394531 -137.519531 169.222656 -153.007812 169.046875 -173.625 C 168.867188 -194.238281 165.820312 -209.40625 159.90625 -219.125 C 153.988281 -228.851562 144.300781 -233.660156 130.84375 -233.546875 C 118.476562 -233.441406 109.515625 -228.472656 103.953125 -218.640625 C 98.390625 -208.816406 95.695312 -193.597656 95.875 -172.984375 C 96.050781 -152.367188 98.960938 -136.929688 104.609375 -126.671875 C 110.265625 -116.410156 119.367188 -111.332031 131.921875 -111.4375 Z M 131.921875 -111.4375 "/></g></g></g></g></g></g><g clip-path="url(#f550490a2c)"><g clip-path="url(#d066d8bc94)"><g clip-path="url(#14e9fbaf90)"><g fill="#231f20" fill-opacity="1"><g transform="translate(1409.129556, 560.102431)"><g><path d="M 189.4375 -23.71875 L 171.21875 -14.140625 C 146.238281 -1.015625 123.707031 5.632812 103.625 5.8125 C 57 6.21875 33.46875 -18.410156 33.03125 -68.078125 L 31.640625 -228.921875 L 6.296875 -235.15625 L 6.140625 -252.90625 L 109.15625 -253.796875 L 110.671875 -79.25 C 110.804688 -64.175781 114.09375 -52.453125 120.53125 -44.078125 C 126.96875 -35.710938 136.109375 -31.582031 147.953125 -31.6875 C 161.578125 -31.800781 175.171875 -34.96875 188.734375 -41.1875 L 187.09375 -230.265625 L 163.921875 -236.53125 L 163.765625 -254.28125 L 264.625 -255.15625 L 266.625 -26.53125 L 291.40625 -20.296875 L 291.5625 -2.546875 L 193.390625 -1.6875 Z M 189.4375 -23.71875 "/></g></g></g></g></g></g><g clip-path="url(#c209dc4dc9)"><g clip-path="url(#936ea44d61)"><g clip-path="url(#ad1054029f)"><g fill="#231f20" fill-opacity="1"><g transform="translate(1698.972534, 557.57301)"><g><path d="M 124.328125 6.71875 L 21.15625 -228.828125 L 3.328125 -235.125 L 3.171875 -252.875 L 132.5625 -254 L 132.71875 -236.25 L 102.65625 -228.984375 L 163.3125 -89.640625 L 215.078125 -230.515625 L 185.421875 -236.71875 L 185.265625 -254.46875 L 267.84375 -255.1875 L 268 -237.4375 L 249.765625 -231.875 L 152.125 14.546875 C 140.894531 43.878906 131.03125 65.171875 122.53125 78.421875 C 114.039062 91.671875 104.578125 101.613281 94.140625 108.25 C 83.710938 114.894531 71.773438 118.273438 58.328125 118.390625 C 43.796875 118.515625 28.984375 116.941406 13.890625 113.671875 L 13.328125 48.578125 L 29.46875 48.4375 L 41.34375 82.21875 C 46.570312 86.300781 53.21875 88.304688 61.28125 88.234375 C 68.101562 88.179688 74.097656 86.515625 79.265625 83.234375 C 84.441406 79.960938 89.289062 75.257812 93.8125 69.125 C 98.332031 62.988281 102.613281 55.460938 106.65625 46.546875 C 110.707031 37.628906 116.597656 24.351562 124.328125 6.71875 Z M 124.328125 6.71875 "/></g></g></g></g></g></g><g clip-path="url(#0f3e3d5880)"><g clip-path="url(#12b3f0a61d)"><g clip-path="url(#67fca06d8f)"><g fill="#231f20" fill-opacity="1"><g transform="translate(1957.882681, 555.313535)"><g><path d="M 130.625 -260.171875 C 164.875 -260.472656 189.738281 -251.539062 205.21875 -233.375 C 220.707031 -215.21875 228.617188 -186.867188 228.953125 -148.328125 L 229.15625 -126.265625 L 96.5625 -125.109375 L 96.59375 -120.8125 C 96.820312 -94.09375 99.140625 -75.101562 103.546875 -63.84375 C 107.953125 -52.59375 115.019531 -44.050781 124.75 -38.21875 C 134.488281 -32.382812 147.785156 -29.539062 164.640625 -29.6875 C 180.410156 -29.820312 200.289062 -32.59375 224.28125 -38 L 224.453125 -17.28125 C 214.640625 -11.28125 201.90625 -6.285156 186.25 -2.296875 C 170.601562 1.691406 155.335938 3.753906 140.453125 3.890625 C 99.035156 4.242188 68.320312 -6.289062 48.3125 -27.71875 C 28.3125 -49.15625 18.113281 -82.554688 17.71875 -127.921875 C 17.332031 -172.023438 26.503906 -205.007812 45.234375 -226.875 C 63.972656 -248.738281 92.4375 -259.835938 130.625 -260.171875 Z M 127.90625 -232.96875 C 117.144531 -232.875 109.164062 -226.976562 103.96875 -215.28125 C 98.78125 -203.582031 96.316406 -182.945312 96.578125 -153.375 L 155.21875 -153.875 C 155.007812 -177.894531 154.054688 -194.785156 152.359375 -204.546875 C 150.660156 -214.304688 147.863281 -221.5 143.96875 -226.125 C 140.070312 -230.75 134.71875 -233.03125 127.90625 -232.96875 Z M 127.90625 -232.96875 "/></g></g></g></g></g></g><g clip-path="url(#14b9cc3127)"><g clip-path="url(#b8730c52bf)"><g clip-path="url(#a635e37d72)"><g fill="#231f20" fill-opacity="1"><g transform="translate(2185.860003, 553.324007)"><g><path d="M 114.71875 -231.78125 L 132.9375 -241.359375 C 157.914062 -254.484375 180.445312 -261.132812 200.53125 -261.3125 C 247.15625 -261.71875 270.6875 -237.085938 271.125 -187.421875 L 272.53125 -26.578125 L 297.875 -20.34375 L 298.03125 -2.59375 L 172.40625 -1.5 L 172.25 -19.25 L 194.796875 -25.90625 L 193.484375 -176.25 C 193.347656 -191.3125 190.0625 -203.03125 183.625 -211.40625 C 177.1875 -219.78125 168.054688 -223.914062 156.234375 -223.8125 C 142.597656 -223.695312 128.992188 -220.523438 115.421875 -214.296875 L 117.078125 -25.21875 L 140.25 -18.96875 L 140.40625 -1.21875 L 14.796875 -0.125 L 14.640625 -17.875 L 39.34375 -24.546875 L 37.5625 -228.96875 L 12.75 -235.203125 L 12.59375 -252.953125 L 110.765625 -253.8125 Z M 114.71875 -231.78125 "/></g></g></g></g></g></g><g clip-path="url(#fe2eaf6b07)"><g clip-path="url(#a7ae891a2e)"><g clip-path="url(#a55b189e49)"><g fill="#231f20" fill-opacity="1"><g transform="translate(2475.702982, 550.794586)"><g><path d="M 107.921875 -240.875 C 126.992188 -254.125 150.242188 -260.867188 177.671875 -261.109375 C 212.816406 -261.421875 239.039062 -251.335938 256.34375 -230.859375 C 273.65625 -210.390625 282.503906 -177.925781 282.890625 -133.46875 C 283.273438 -89.351562 273.617188 -55.507812 253.921875 -31.9375 C 234.222656 -8.363281 205.726562 3.582031 168.4375 3.90625 C 149.425781 4.070312 130.21875 1.816406 110.8125 -2.859375 C 111.988281 8.972656 112.640625 22.238281 112.765625 36.9375 L 113.25 92.078125 L 150.421875 98.21875 L 150.578125 115.984375 L 8.28125 117.21875 L 8.125 99.453125 L 35.515625 92.765625 L 32.71875 -228.921875 L 4.953125 -235.140625 L 4.796875 -252.890625 L 107.28125 -253.78125 Z M 204.09375 -130.890625 C 203.507812 -197.941406 187.625 -231.332031 156.4375 -231.0625 C 139.757812 -230.914062 124.457031 -227.378906 110.53125 -220.453125 L 112.1875 -29.765625 C 126.738281 -26.117188 141.90625 -24.363281 157.6875 -24.5 C 189.238281 -24.769531 204.707031 -60.234375 204.09375 -130.890625 Z M 204.09375 -130.890625 "/></g></g></g></g></g></g><g clip-path="url(#55dafe219a)"><g clip-path="url(#60b460c4af)"><g clip-path="url(#c15ed0d690)"><g fill="#231f20" fill-opacity="1"><g transform="translate(2765.545871, 548.265165)"><g><path d="M 144.625 -259.75 C 207.914062 -260.300781 239.765625 -237.269531 240.171875 -190.65625 L 241.609375 -26.3125 L 266.9375 -20.078125 L 267.09375 -2.328125 L 174.015625 -1.515625 L 167.953125 -20.828125 C 154.046875 -11.203125 141.457031 -4.59375 130.1875 -1 C 118.925781 2.59375 107.554688 4.4375 96.078125 4.53125 C 43.890625 4.988281 17.578125 -19.882812 17.140625 -70.09375 C 16.972656 -89.101562 20.695312 -104.332031 28.3125 -115.78125 C 35.925781 -127.238281 46.972656 -135.765625 61.453125 -141.359375 C 75.929688 -146.953125 98.765625 -150.242188 129.953125 -151.234375 L 162.765625 -152.328125 L 162.4375 -189.15625 C 162.175781 -219.632812 149.582031 -234.769531 124.65625 -234.5625 C 109.59375 -234.425781 92.78125 -229.613281 74.21875 -220.125 L 64.265625 -188.578125 L 46.515625 -188.421875 L 45.984375 -249.484375 C 73.023438 -253.835938 92.90625 -256.609375 105.625 -257.796875 C 118.351562 -258.984375 131.351562 -259.632812 144.625 -259.75 Z M 162.96875 -128.375 L 140.390625 -127.390625 C 122.992188 -126.515625 110.96875 -121.832031 104.3125 -113.34375 C 97.664062 -104.863281 94.425781 -91.207031 94.59375 -72.375 C 94.726562 -57.132812 97.515625 -45.953125 102.953125 -38.828125 C 108.398438 -31.703125 115.425781 -28.175781 124.03125 -28.25 C 136.226562 -28.351562 149.472656 -31.601562 163.765625 -38 Z M 162.96875 -128.375 "/></g></g></g></g></g></g><g clip-path="url(#a12b53448f)"><g clip-path="url(#53e2f18b64)"><g clip-path="url(#6b5a73c1bb)"><g fill="#231f20" fill-opacity="1"><g transform="translate(3024.456107, 546.005689)"><g><path d="M 114.71875 -231.78125 L 132.9375 -241.359375 C 157.914062 -254.484375 180.445312 -261.132812 200.53125 -261.3125 C 247.15625 -261.71875 270.6875 -237.085938 271.125 -187.421875 L 272.53125 -26.578125 L 297.875 -20.34375 L 298.03125 -2.59375 L 172.40625 -1.5 L 172.25 -19.25 L 194.796875 -25.90625 L 193.484375 -176.25 C 193.347656 -191.3125 190.0625 -203.03125 183.625 -211.40625 C 177.1875 -219.78125 168.054688 -223.914062 156.234375 -223.8125 C 142.597656 -223.695312 128.992188 -220.523438 115.421875 -214.296875 L 117.078125 -25.21875 L 140.25 -18.96875 L 140.40625 -1.21875 L 14.796875 -0.125 L 14.640625 -17.875 L 39.34375 -24.546875 L 37.5625 -228.96875 L 12.75 -235.203125 L 12.59375 -252.953125 L 110.765625 -253.8125 Z M 114.71875 -231.78125 "/></g></g></g></g></g></g><g clip-path="url(#e0fb515bfe)"><g clip-path="url(#592b662033)"><g clip-path="url(#c93509ad5e)"><g fill="#231f20" fill-opacity="1"><g transform="translate(3314.298996, 543.476269)"><g><path d="M 197.03125 -15.96875 C 187.039062 -9.4375 179.367188 -5.113281 174.015625 -3 C 168.660156 -0.894531 162.578125 0.8125 155.765625 2.125 C 148.960938 3.445312 141.441406 4.144531 133.203125 4.21875 C 95.898438 4.539062 68.007812 -5.925781 49.53125 -27.1875 C 31.050781 -48.457031 21.617188 -81.328125 21.234375 -125.796875 C 20.847656 -169.546875 30.375 -202.890625 49.8125 -225.828125 C 69.25 -248.773438 97.617188 -260.410156 134.921875 -260.734375 C 154.460938 -260.910156 174.203125 -258.664062 194.140625 -254 C 193.015625 -259.914062 192.359375 -273.8125 192.171875 -295.6875 L 191.609375 -359.703125 L 165.75 -365.921875 L 165.59375 -383.671875 L 269.140625 -384.578125 L 272.265625 -26.578125 L 300.015625 -20.359375 L 300.171875 -2.609375 L 202.796875 -1.765625 Z M 100.03125 -128.640625 C 100.320312 -95.109375 104.753906 -69.546875 113.328125 -51.953125 C 121.910156 -34.367188 134.09375 -25.648438 149.875 -25.796875 C 164.207031 -25.921875 179.054688 -29.90625 194.421875 -37.75 L 192.765625 -228.171875 C 178.742188 -231.804688 164.566406 -233.5625 150.234375 -233.4375 C 134.085938 -233.289062 121.609375 -224.347656 112.796875 -206.609375 C 103.984375 -188.867188 99.726562 -162.878906 100.03125 -128.640625 Z M 100.03125 -128.640625 "/></g></g></g></g></g></g><g clip-path="url(#d1587f6e11)"><g clip-path="url(#df8e91e33e)"><g clip-path="url(#739dec853c)"><g fill="#231f20" fill-opacity="1"><g transform="translate(3604.141885, 540.946848)"><g><path d="M 144.625 -259.75 C 207.914062 -260.300781 239.765625 -237.269531 240.171875 -190.65625 L 241.609375 -26.3125 L 266.9375 -20.078125 L 267.09375 -2.328125 L 174.015625 -1.515625 L 167.953125 -20.828125 C 154.046875 -11.203125 141.457031 -4.59375 130.1875 -1 C 118.925781 2.59375 107.554688 4.4375 96.078125 4.53125 C 43.890625 4.988281 17.578125 -19.882812 17.140625 -70.09375 C 16.972656 -89.101562 20.695312 -104.332031 28.3125 -115.78125 C 35.925781 -127.238281 46.972656 -135.765625 61.453125 -141.359375 C 75.929688 -146.953125 98.765625 -150.242188 129.953125 -151.234375 L 162.765625 -152.328125 L 162.4375 -189.15625 C 162.175781 -219.632812 149.582031 -234.769531 124.65625 -234.5625 C 109.59375 -234.425781 92.78125 -229.613281 74.21875 -220.125 L 64.265625 -188.578125 L 46.515625 -188.421875 L 45.984375 -249.484375 C 73.023438 -253.835938 92.90625 -256.609375 105.625 -257.796875 C 118.351562 -258.984375 131.351562 -259.632812 144.625 -259.75 Z M 162.96875 -128.375 L 140.390625 -127.390625 C 122.992188 -126.515625 110.96875 -121.832031 104.3125 -113.34375 C 97.664062 -104.863281 94.425781 -91.207031 94.59375 -72.375 C 94.726562 -57.132812 97.515625 -45.953125 102.953125 -38.828125 C 108.398438 -31.703125 115.425781 -28.175781 124.03125 -28.25 C 136.226562 -28.351562 149.472656 -31.601562 163.765625 -38 Z M 162.96875 -128.375 "/></g></g></g></g></g></g></svg>