<svg xmlns="http://www.w3.org/2000/svg" xmlns:xlink="http://www.w3.org/1999/xlink" width="5400" zoomAndPan="magnify" viewBox="0 0 4050 809.999993" height="1080" preserveAspectRatio="xMidYMid meet" version="1.0"><defs><g/><clipPath id="5febccf29a"><path d="M 409 340 L 452 340 L 452 380 L 409 380 Z M 409 340 " clip-rule="nonzero"/></clipPath><clipPath id="0982bc81a7"><path d="M -7.855469 -1.058594 L 4050.242188 -36.472656 L 4057.636719 810.996094 L -0.457031 846.410156 Z M -7.855469 -1.058594 " clip-rule="nonzero"/></clipPath><clipPath id="a94d8eb652"><path d="M -587.226562 -126.511719 L 5022.5625 -175.46875 L 5032.175781 926.238281 L -577.609375 975.195312 Z M -587.226562 -126.511719 " clip-rule="nonzero"/></clipPath><clipPath id="2e39bce9fc"><path d="M 443 219 L 573 219 L 573 345 L 443 345 Z M 443 219 " clip-rule="nonzero"/></clipPath><clipPath id="7ec9398f2f"><path d="M -7.855469 -1.058594 L 4050.242188 -36.472656 L 4057.636719 810.996094 L -0.457031 846.410156 Z M -7.855469 -1.058594 " clip-rule="nonzero"/></clipPath><clipPath id="161599a07f"><path d="M -587.226562 -126.511719 L 5022.5625 -175.46875 L 5032.175781 926.238281 L -577.609375 975.195312 Z M -587.226562 -126.511719 " clip-rule="nonzero"/></clipPath><clipPath id="70bb113ede"><path d="M 279 220 L 409 220 L 409 347 L 279 347 Z M 279 220 " clip-rule="nonzero"/></clipPath><clipPath id="8bc162738c"><path d="M -7.855469 -1.058594 L 4050.242188 -36.472656 L 4057.636719 810.996094 L -0.457031 846.410156 Z M -7.855469 -1.058594 " clip-rule="nonzero"/></clipPath><clipPath id="df0405fea1"><path d="M -587.226562 -126.511719 L 5022.5625 -175.46875 L 5032.175781 926.238281 L -577.609375 975.195312 Z M -587.226562 -126.511719 " clip-rule="nonzero"/></clipPath><clipPath id="3e6ee38d22"><path d="M 182 153 L 291 153 L 291 268 L 182 268 Z M 182 153 " clip-rule="nonzero"/></clipPath><clipPath id="1077a007e1"><path d="M -7.855469 -1.058594 L 4050.242188 -36.472656 L 4057.636719 810.996094 L -0.457031 846.410156 Z M -7.855469 -1.058594 " clip-rule="nonzero"/></clipPath><clipPath id="e9226d6839"><path d="M -587.226562 -126.511719 L 5022.5625 -175.46875 L 5032.175781 926.238281 L -577.609375 975.195312 Z M -587.226562 -126.511719 " clip-rule="nonzero"/></clipPath><clipPath id="00bbeb372b"><path d="M 564 160 L 673 160 L 673 274 L 564 274 Z M 564 160 " clip-rule="nonzero"/></clipPath><clipPath id="3aba5fde11"><path d="M -7.855469 -1.058594 L 4050.242188 -36.472656 L 4057.636719 810.996094 L -0.457031 846.410156 Z M -7.855469 -1.058594 " clip-rule="nonzero"/></clipPath><clipPath id="8b7695618a"><path d="M -587.226562 -126.511719 L 5022.5625 -175.46875 L 5032.175781 926.238281 L -577.609375 975.195312 Z M -587.226562 -126.511719 " clip-rule="nonzero"/></clipPath><clipPath id="f293ec9879"><path d="M 439 434 L 575 434 L 575 691 L 439 691 Z M 439 434 " clip-rule="nonzero"/></clipPath><clipPath id="0e1338aa8f"><path d="M -7.855469 -1.058594 L 4050.242188 -36.472656 L 4057.636719 810.996094 L -0.457031 846.410156 Z M -7.855469 -1.058594 " clip-rule="nonzero"/></clipPath><clipPath id="c6e6f1aa96"><path d="M -587.226562 -126.511719 L 5022.5625 -175.46875 L 5032.175781 926.238281 L -577.609375 975.195312 Z M -587.226562 -126.511719 " clip-rule="nonzero"/></clipPath><clipPath id="4712835d22"><path d="M 275 437 L 417 437 L 417 693 L 275 693 Z M 275 437 " clip-rule="nonzero"/></clipPath><clipPath id="87ebf70e99"><path d="M -7.855469 -1.058594 L 4050.242188 -36.472656 L 4057.636719 810.996094 L -0.457031 846.410156 Z M -7.855469 -1.058594 " clip-rule="nonzero"/></clipPath><clipPath id="eab2b5b921"><path d="M -587.226562 -126.511719 L 5022.5625 -175.46875 L 5032.175781 926.238281 L -577.609375 975.195312 Z M -587.226562 -126.511719 " clip-rule="nonzero"/></clipPath><clipPath id="1fe98a87d0"><path d="M 182 520 L 281 520 L 281 684 L 182 684 Z M 182 520 " clip-rule="nonzero"/></clipPath><clipPath id="b2572b8548"><path d="M -7.855469 -1.058594 L 4050.242188 -36.472656 L 4057.636719 810.996094 L -0.457031 846.410156 Z M -7.855469 -1.058594 " clip-rule="nonzero"/></clipPath><clipPath id="2fcbb45795"><path d="M -587.226562 -126.511719 L 5022.5625 -175.46875 L 5032.175781 926.238281 L -577.609375 975.195312 Z M -587.226562 -126.511719 " clip-rule="nonzero"/></clipPath><clipPath id="a4e0e9255d"><path d="M 573 514 L 671 514 L 671 683 L 573 683 Z M 573 514 " clip-rule="nonzero"/></clipPath><clipPath id="874ecd5def"><path d="M -7.855469 -1.058594 L 4050.242188 -36.472656 L 4057.636719 810.996094 L -0.457031 846.410156 Z M -7.855469 -1.058594 " clip-rule="nonzero"/></clipPath><clipPath id="bc8494e011"><path d="M -587.226562 -126.511719 L 5022.5625 -175.46875 L 5032.175781 926.238281 L -577.609375 975.195312 Z M -587.226562 -126.511719 " clip-rule="nonzero"/></clipPath><clipPath id="8c8c7d487d"><path d="M 256 245 L 560 245 L 560 515 L 256 515 Z M 256 245 " clip-rule="nonzero"/></clipPath><clipPath id="76926643fa"><path d="M -7.855469 -1.058594 L 4050.242188 -36.472656 L 4057.636719 810.996094 L -0.457031 846.410156 Z M -7.855469 -1.058594 " clip-rule="nonzero"/></clipPath><clipPath id="8f32ebe8bf"><path d="M -587.226562 -126.511719 L 5022.5625 -175.46875 L 5032.175781 926.238281 L -577.609375 975.195312 Z M -587.226562 -126.511719 " clip-rule="nonzero"/></clipPath><clipPath id="8ef5d415a3"><path d="M 301 245 L 605 245 L 605 514 L 301 514 Z M 301 245 " clip-rule="nonzero"/></clipPath><clipPath id="cc32fe6206"><path d="M -7.855469 -1.058594 L 4050.242188 -36.472656 L 4057.636719 810.996094 L -0.457031 846.410156 Z M -7.855469 -1.058594 " clip-rule="nonzero"/></clipPath><clipPath id="a8c857140b"><path d="M -587.226562 -126.511719 L 5022.5625 -175.46875 L 5032.175781 926.238281 L -577.609375 975.195312 Z M -587.226562 -126.511719 " clip-rule="nonzero"/></clipPath><clipPath id="623383cae1"><path d="M 842 302 L 1128 302 L 1128 565 L 842 565 Z M 842 302 " clip-rule="nonzero"/></clipPath><clipPath id="2d73dd6447"><path d="M -7.855469 -1.058594 L 4050.242188 -36.472656 L 4057.636719 810.996094 L -0.457031 846.410156 Z M -7.855469 -1.058594 " clip-rule="nonzero"/></clipPath><clipPath id="fe3260d3aa"><path d="M -587.226562 -126.511719 L 5022.5625 -175.46875 L 5032.175781 926.238281 L -577.609375 975.195312 Z M -587.226562 -126.511719 " clip-rule="nonzero"/></clipPath><clipPath id="00560c728a"><path d="M 1131 277 L 1391 277 L 1391 684 L 1131 684 Z M 1131 277 " clip-rule="nonzero"/></clipPath><clipPath id="f54229853b"><path d="M -7.855469 -1.058594 L 4050.242188 -36.472656 L 4057.636719 810.996094 L -0.457031 846.410156 Z M -7.855469 -1.058594 " clip-rule="nonzero"/></clipPath><clipPath id="bdc5153132"><path d="M -587.226562 -126.511719 L 5022.5625 -175.46875 L 5032.175781 926.238281 L -577.609375 975.195312 Z M -587.226562 -126.511719 " clip-rule="nonzero"/></clipPath><clipPath id="06b881af51"><path d="M 1384 304 L 1671 304 L 1671 567 L 1384 567 Z M 1384 304 " clip-rule="nonzero"/></clipPath><clipPath id="68e03c77ae"><path d="M -7.855469 -1.058594 L 4050.242188 -36.472656 L 4057.636719 810.996094 L -0.457031 846.410156 Z M -7.855469 -1.058594 " clip-rule="nonzero"/></clipPath><clipPath id="eaca15003e"><path d="M -587.226562 -126.511719 L 5022.5625 -175.46875 L 5032.175781 926.238281 L -577.609375 975.195312 Z M -587.226562 -126.511719 " clip-rule="nonzero"/></clipPath><clipPath id="0b1b588004"><path d="M 1671 302 L 1940 302 L 1940 677 L 1671 677 Z M 1671 302 " clip-rule="nonzero"/></clipPath><clipPath id="a6d8f27fb3"><path d="M -7.855469 -1.058594 L 4050.242188 -36.472656 L 4057.636719 810.996094 L -0.457031 846.410156 Z M -7.855469 -1.058594 " clip-rule="nonzero"/></clipPath><clipPath id="2089f87228"><path d="M -587.226562 -126.511719 L 5022.5625 -175.46875 L 5032.175781 926.238281 L -577.609375 975.195312 Z M -587.226562 -126.511719 " clip-rule="nonzero"/></clipPath><clipPath id="db744b703a"><path d="M 1943 294 L 2158 294 L 2158 561 L 1943 561 Z M 1943 294 " clip-rule="nonzero"/></clipPath><clipPath id="bbe47f0be6"><path d="M -7.855469 -1.058594 L 4050.242188 -36.472656 L 4057.636719 810.996094 L -0.457031 846.410156 Z M -7.855469 -1.058594 " clip-rule="nonzero"/></clipPath><clipPath id="3a9b51596d"><path d="M -587.226562 -126.511719 L 5022.5625 -175.46875 L 5032.175781 926.238281 L -577.609375 975.195312 Z M -587.226562 -126.511719 " clip-rule="nonzero"/></clipPath><clipPath id="aa3ba4d308"><path d="M 2167 291 L 2454 291 L 2454 554 L 2167 554 Z M 2167 291 " clip-rule="nonzero"/></clipPath><clipPath id="677a679287"><path d="M -7.855469 -1.058594 L 4050.242188 -36.472656 L 4057.636719 810.996094 L -0.457031 846.410156 Z M -7.855469 -1.058594 " clip-rule="nonzero"/></clipPath><clipPath id="2c17a66233"><path d="M -587.226562 -126.511719 L 5022.5625 -175.46875 L 5032.175781 926.238281 L -577.609375 975.195312 Z M -587.226562 -126.511719 " clip-rule="nonzero"/></clipPath><clipPath id="9095007cd8"><path d="M 2449 288 L 2731 288 L 2731 669 L 2449 669 Z M 2449 288 " clip-rule="nonzero"/></clipPath><clipPath id="cca033e098"><path d="M -7.855469 -1.058594 L 4050.242188 -36.472656 L 4057.636719 810.996094 L -0.457031 846.410156 Z M -7.855469 -1.058594 " clip-rule="nonzero"/></clipPath><clipPath id="1fa45f23b3"><path d="M -587.226562 -126.511719 L 5022.5625 -175.46875 L 5032.175781 926.238281 L -577.609375 975.195312 Z M -587.226562 -126.511719 " clip-rule="nonzero"/></clipPath><clipPath id="537537b4c0"><path d="M 2750 287 L 3002 287 L 3002 554 L 2750 554 Z M 2750 287 " clip-rule="nonzero"/></clipPath><clipPath id="ba63316ed4"><path d="M -7.855469 -1.058594 L 4050.242188 -36.472656 L 4057.636719 810.996094 L -0.457031 846.410156 Z M -7.855469 -1.058594 " clip-rule="nonzero"/></clipPath><clipPath id="ab6efdba5f"><path d="M -587.226562 -126.511719 L 5022.5625 -175.46875 L 5032.175781 926.238281 L -577.609375 975.195312 Z M -587.226562 -126.511719 " clip-rule="nonzero"/></clipPath><clipPath id="0860337581"><path d="M 3006 283 L 3292 283 L 3292 546 L 3006 546 Z M 3006 283 " clip-rule="nonzero"/></clipPath><clipPath id="f523e685bf"><path d="M -7.855469 -1.058594 L 4050.242188 -36.472656 L 4057.636719 810.996094 L -0.457031 846.410156 Z M -7.855469 -1.058594 " clip-rule="nonzero"/></clipPath><clipPath id="5ed6a28055"><path d="M -587.226562 -126.511719 L 5022.5625 -175.46875 L 5032.175781 926.238281 L -577.609375 975.195312 Z M -587.226562 -126.511719 " clip-rule="nonzero"/></clipPath><clipPath id="a480366630"><path d="M 3302 158 L 3584 158 L 3584 549 L 3302 549 Z M 3302 158 " clip-rule="nonzero"/></clipPath><clipPath id="60af81d79d"><path d="M -7.855469 -1.058594 L 4050.242188 -36.472656 L 4057.636719 810.996094 L -0.457031 846.410156 Z M -7.855469 -1.058594 " clip-rule="nonzero"/></clipPath><clipPath id="63e1651a7f"><path d="M -587.226562 -126.511719 L 5022.5625 -175.46875 L 5032.175781 926.238281 L -577.609375 975.195312 Z M -587.226562 -126.511719 " clip-rule="nonzero"/></clipPath><clipPath id="efcb5c45bd"><path d="M 3588 280 L 3841 280 L 3841 547 L 3588 547 Z M 3588 280 " clip-rule="nonzero"/></clipPath><clipPath id="a303131872"><path d="M -7.855469 -1.058594 L 4050.242188 -36.472656 L 4057.636719 810.996094 L -0.457031 846.410156 Z M -7.855469 -1.058594 " clip-rule="nonzero"/></clipPath><clipPath id="71beb7e380"><path d="M -587.226562 -126.511719 L 5022.5625 -175.46875 L 5032.175781 926.238281 L -577.609375 975.195312 Z M -587.226562 -126.511719 " clip-rule="nonzero"/></clipPath></defs><rect x="-405" width="4860" fill="#ffffff" y="-80.999999" height="971.999992" fill-opacity="1"/><rect x="-405" width="4860" fill="#ffffff" y="-80.999999" height="971.999992" fill-opacity="1"/><g clip-path="url(#5febccf29a)"><g clip-path="url(#0982bc81a7)"><g clip-path="url(#a94d8eb652)"><path fill="#231f20" d="M 436.878906 340.25 C 452.046875 342.320312 455.320312 349.269531 447.449219 362.46875 C 444.664062 366.976562 441.640625 371.316406 438.378906 375.492188 C 438.210938 375.78125 438.023438 376.0625 437.816406 376.328125 C 437.609375 376.59375 437.390625 376.84375 437.152344 377.082031 C 436.914062 377.320312 436.660156 377.539062 436.394531 377.746094 C 436.125 377.949219 435.847656 378.136719 435.554688 378.304688 C 435.265625 378.472656 434.964844 378.625 434.652344 378.753906 C 434.34375 378.882812 434.027344 378.992188 433.703125 379.082031 C 433.378906 379.167969 433.046875 379.238281 432.714844 379.28125 C 432.382812 379.328125 432.046875 379.355469 431.710938 379.355469 C 431.375 379.359375 431.039062 379.339844 430.707031 379.300781 C 430.371094 379.261719 430.042969 379.199219 429.714844 379.117188 C 429.390625 379.03125 429.070312 378.929688 428.757812 378.804688 C 428.445312 378.679688 428.140625 378.535156 427.847656 378.371094 C 427.554688 378.210938 427.273438 378.027344 427 377.828125 C 426.730469 377.628906 426.476562 377.410156 426.230469 377.175781 C 425.988281 376.945312 425.761719 376.695312 425.554688 376.433594 C 425.34375 376.171875 425.148438 375.898438 424.976562 375.609375 C 420.101562 370.359375 415.617188 364.796875 411.515625 358.925781 C 410.90625 358.140625 410.410156 357.292969 410.027344 356.375 C 409.644531 355.460938 409.390625 354.507812 409.261719 353.523438 C 409.136719 352.539062 409.140625 351.554688 409.277344 350.574219 C 409.414062 349.589844 409.675781 348.640625 410.066406 347.730469 C 410.457031 346.816406 410.960938 345.972656 411.578125 345.195312 C 412.195312 344.414062 412.902344 343.734375 413.703125 343.144531 C 414.503906 342.558594 415.367188 342.085938 416.292969 341.730469 C 417.21875 341.375 418.175781 341.144531 419.164062 341.046875 C 425.054688 340.414062 430.957031 340.144531 436.878906 340.25 Z M 436.878906 340.25 " fill-opacity="1" fill-rule="nonzero"/></g></g></g><g clip-path="url(#2e39bce9fc)"><g clip-path="url(#7ec9398f2f)"><g clip-path="url(#161599a07f)"><path fill="#231f20" d="M 524.972656 344.527344 C 526.8125 344.652344 528.652344 344.652344 530.496094 344.53125 C 532.335938 344.410156 534.160156 344.167969 535.96875 343.808594 C 537.78125 343.449219 539.558594 342.972656 541.304688 342.378906 C 543.050781 341.785156 544.753906 341.078125 546.40625 340.261719 C 548.0625 339.445312 549.65625 338.523438 551.1875 337.5 C 552.71875 336.472656 554.179688 335.351562 555.566406 334.132812 C 556.953125 332.914062 558.25 331.609375 559.464844 330.222656 C 560.679688 328.832031 561.800781 327.371094 562.824219 325.835938 C 580.972656 301.164062 573.726562 260.277344 549.9375 238.082031 C 548.464844 236.726562 546.941406 235.441406 545.363281 234.21875 C 543.78125 232.996094 542.152344 231.84375 540.472656 230.761719 C 538.796875 229.679688 537.074219 228.667969 535.308594 227.734375 C 533.546875 226.796875 531.742188 225.9375 529.90625 225.15625 C 528.066406 224.375 526.199219 223.671875 524.300781 223.050781 C 522.402344 222.425781 520.484375 221.886719 518.539062 221.429688 C 516.59375 220.96875 514.632812 220.59375 512.660156 220.304688 C 510.683594 220.011719 508.695312 219.808594 506.703125 219.683594 C 504.710938 219.5625 502.714844 219.527344 500.71875 219.578125 C 498.71875 219.625 496.730469 219.761719 494.746094 219.980469 C 492.757812 220.199219 490.785156 220.5 488.828125 220.890625 C 486.867188 221.277344 484.929688 221.746094 483.007812 222.300781 C 481.089844 222.855469 479.199219 223.488281 477.332031 224.203125 C 475.46875 224.917969 473.636719 225.710938 471.839844 226.582031 C 470.042969 227.453125 468.285156 228.398438 466.566406 229.421875 C 464.851562 230.441406 463.179688 231.535156 461.558594 232.699219 C 437.847656 251.269531 438.042969 273.671875 460.527344 293.398438 C 469.78125 301.671875 479.183594 326.839844 488.441406 335.667969 C 499.277344 346.40625 506.609375 344.6875 524.972656 344.527344 Z M 524.972656 344.527344 " fill-opacity="1" fill-rule="nonzero"/></g></g></g><g clip-path="url(#70bb113ede)"><g clip-path="url(#8bc162738c)"><g clip-path="url(#df0405fea1)"><path fill="#231f20" d="M 328.675781 346.242188 C 326.835938 346.394531 324.996094 346.425781 323.15625 346.332031 C 321.3125 346.242188 319.484375 346.035156 317.667969 345.703125 C 315.855469 345.375 314.066406 344.929688 312.3125 344.363281 C 310.554688 343.800781 308.84375 343.125 307.175781 342.339844 C 305.507812 341.550781 303.898438 340.65625 302.347656 339.660156 C 300.796875 338.660156 299.316406 337.5625 297.910156 336.371094 C 296.503906 335.179688 295.179688 333.898438 293.941406 332.535156 C 292.699219 331.167969 291.554688 329.726562 290.503906 328.210938 C 271.929688 303.859375 278.546875 262.851562 301.855469 240.246094 C 303.304688 238.867188 304.808594 237.550781 306.371094 236.300781 C 307.929688 235.050781 309.539062 233.871094 311.203125 232.757812 C 312.863281 231.644531 314.566406 230.605469 316.316406 229.636719 C 318.066406 228.671875 319.855469 227.78125 321.679688 226.964844 C 323.507812 226.152344 325.363281 225.414062 327.253906 224.757812 C 329.144531 224.105469 331.054688 223.53125 332.992188 223.035156 C 334.929688 222.542969 336.886719 222.136719 338.859375 221.808594 C 340.832031 221.484375 342.816406 221.242188 344.808594 221.085938 C 346.800781 220.929688 348.796875 220.859375 350.796875 220.875 C 352.796875 220.890625 354.792969 220.988281 356.78125 221.171875 C 358.773438 221.359375 360.753906 221.628906 362.722656 221.980469 C 364.6875 222.335938 366.636719 222.769531 368.566406 223.292969 C 370.5 223.8125 372.402344 224.414062 374.28125 225.097656 C 376.164062 225.777344 378.007812 226.539062 379.824219 227.382812 C 381.636719 228.222656 383.414062 229.136719 385.148438 230.128906 C 386.882812 231.121094 388.574219 232.1875 390.21875 233.324219 C 414.160156 251.476562 414.445312 273.878906 392.308594 293.996094 C 383.203125 302.429688 374.242188 327.757812 365.136719 336.742188 C 354.488281 347.667969 347.039062 346.082031 328.675781 346.242188 Z M 328.675781 346.242188 " fill-opacity="1" fill-rule="nonzero"/></g></g></g><g clip-path="url(#3e6ee38d22)"><g clip-path="url(#1077a007e1)"><g clip-path="url(#e9226d6839)"><path fill="#231f20" d="M 228.359375 266.871094 C 227.453125 266.753906 226.554688 266.613281 225.65625 266.445312 C 224.761719 266.28125 223.867188 266.09375 222.980469 265.882812 C 222.09375 265.671875 221.214844 265.4375 220.339844 265.179688 C 219.464844 264.921875 218.597656 264.640625 217.738281 264.335938 C 216.878906 264.035156 216.027344 263.710938 215.1875 263.363281 C 214.34375 263.015625 213.511719 262.644531 212.6875 262.253906 C 211.863281 261.863281 211.050781 261.449219 210.25 261.015625 C 209.445312 260.582031 208.65625 260.128906 207.878906 259.652344 C 207.101562 259.179688 206.335938 258.683594 205.582031 258.167969 C 204.832031 257.652344 204.09375 257.117188 203.371094 256.566406 C 202.644531 256.011719 201.9375 255.4375 201.242188 254.847656 C 200.546875 254.257812 199.871094 253.648438 199.207031 253.023438 C 198.542969 252.394531 197.898438 251.753906 197.269531 251.09375 C 196.640625 250.433594 196.03125 249.757812 195.4375 249.066406 C 194.84375 248.371094 194.269531 247.664062 193.714844 246.941406 C 193.15625 246.222656 192.621094 245.484375 192.101562 244.734375 C 191.585938 243.984375 191.085938 243.222656 190.609375 242.445312 C 190.132812 241.667969 189.675781 240.878906 189.238281 240.078125 C 188.800781 239.277344 188.386719 238.46875 187.992188 237.644531 C 187.597656 236.824219 187.226562 235.992188 186.875 235.152344 C 186.527344 234.308594 186.199219 233.460938 185.890625 232.601562 C 185.585938 231.742188 185.300781 230.875 185.042969 230.003906 C 184.78125 229.128906 184.542969 228.25 184.328125 227.363281 C 184.113281 226.476562 183.921875 225.585938 183.753906 224.691406 C 183.585938 223.792969 183.441406 222.894531 183.320312 221.992188 C 183.199219 221.085938 183.105469 220.183594 183.03125 219.273438 C 182.957031 218.363281 182.90625 217.453125 182.882812 216.542969 C 182.855469 215.632812 182.855469 214.722656 182.875 213.808594 C 182.898438 212.898438 182.945312 211.988281 183.011719 211.078125 C 183.082031 210.171875 183.175781 209.265625 183.292969 208.359375 C 183.410156 207.457031 183.550781 206.554688 183.714844 205.660156 C 183.878906 204.761719 184.066406 203.871094 184.277344 202.984375 C 184.515625 201.566406 184.800781 200.160156 185.144531 198.765625 C 185.484375 197.367188 185.875 195.988281 186.316406 194.621094 C 186.757812 193.253906 187.253906 191.90625 187.792969 190.574219 C 188.335938 189.242188 188.925781 187.933594 189.566406 186.648438 C 190.203125 185.359375 190.890625 184.097656 191.621094 182.863281 C 192.351562 181.625 193.128906 180.417969 193.949219 179.238281 C 194.769531 178.058594 195.632812 176.910156 196.539062 175.796875 C 197.445312 174.679688 198.390625 173.601562 199.375 172.554688 C 200.359375 171.507812 201.382812 170.5 202.445312 169.53125 C 203.503906 168.5625 204.597656 167.632812 205.726562 166.742188 C 206.855469 165.851562 208.015625 165.003906 209.203125 164.203125 C 210.394531 163.398438 211.613281 162.640625 212.863281 161.925781 C 214.109375 161.210938 215.378906 160.542969 216.675781 159.925781 C 217.972656 159.304688 219.289062 158.734375 220.628906 158.210938 C 221.964844 157.6875 223.324219 157.214844 224.695312 156.792969 C 226.070312 156.367188 227.457031 155.996094 228.855469 155.675781 C 251.300781 149.605469 269.285156 158.722656 283.390625 175.859375 C 292.667969 186.796875 294.507812 197.523438 281.398438 210.675781 C 270.347656 222.933594 261.53125 236.628906 254.945312 251.765625 C 247.457031 266.980469 245.550781 269.476562 228.359375 266.871094 Z M 228.359375 266.871094 " fill-opacity="1" fill-rule="nonzero"/></g></g></g><g clip-path="url(#00bbeb372b)"><g clip-path="url(#3aba5fde11)"><g clip-path="url(#8b7695618a)"><path fill="#231f20" d="M 627.554688 272.9375 C 611.046875 275.46875 609.191406 273.097656 601.714844 258.101562 C 593.652344 243.117188 584.132812 229.121094 573.160156 216.117188 C 563.882812 205.363281 561.996094 199.503906 568.597656 187.785156 C 569.328125 186.507812 570.113281 185.257812 570.949219 184.042969 C 571.785156 182.828125 572.671875 181.648438 573.601562 180.503906 C 574.535156 179.363281 575.511719 178.257812 576.535156 177.195312 C 577.558594 176.132812 578.625 175.113281 579.730469 174.136719 C 580.835938 173.160156 581.980469 172.234375 583.164062 171.351562 C 584.347656 170.46875 585.5625 169.636719 586.8125 168.855469 C 588.066406 168.074219 589.347656 167.34375 590.65625 166.667969 C 591.96875 165.988281 593.304688 165.367188 594.664062 164.800781 C 596.027344 164.230469 597.410156 163.722656 598.8125 163.265625 C 600.21875 162.8125 601.636719 162.417969 603.074219 162.078125 C 604.507812 161.742188 605.957031 161.460938 607.414062 161.242188 C 608.875 161.023438 610.339844 160.863281 611.8125 160.765625 C 613.285156 160.667969 614.757812 160.628906 616.230469 160.648438 C 617.707031 160.671875 619.179688 160.753906 620.648438 160.894531 C 622.117188 161.039062 623.574219 161.242188 625.027344 161.503906 C 626.480469 161.765625 627.917969 162.085938 629.34375 162.464844 C 630.964844 162.960938 632.5625 163.523438 634.136719 164.148438 C 635.707031 164.777344 637.253906 165.46875 638.769531 166.222656 C 640.285156 166.980469 641.769531 167.796875 643.21875 168.675781 C 644.667969 169.554688 646.078125 170.492188 647.449219 171.484375 C 648.820312 172.480469 650.148438 173.53125 651.429688 174.636719 C 652.714844 175.742188 653.949219 176.898438 655.140625 178.105469 C 656.328125 179.3125 657.464844 180.570312 658.546875 181.871094 C 659.632812 183.171875 660.660156 184.515625 661.632812 185.90625 C 662.605469 187.292969 663.519531 188.714844 664.375 190.179688 C 665.230469 191.640625 666.023438 193.136719 666.753906 194.667969 C 667.484375 196.195312 668.148438 197.75 668.75 199.335938 C 669.355469 200.917969 669.890625 202.523438 670.359375 204.152344 C 670.828125 205.78125 671.226562 207.425781 671.558594 209.085938 C 671.890625 210.75 672.15625 212.421875 672.347656 214.105469 C 672.542969 215.785156 672.664062 217.476562 672.71875 219.167969 C 672.773438 220.863281 672.757812 222.554688 672.671875 224.246094 C 672.59375 225.746094 672.457031 227.242188 672.25 228.730469 C 672.042969 230.21875 671.773438 231.695312 671.4375 233.160156 C 671.105469 234.625 670.707031 236.074219 670.246094 237.503906 C 669.785156 238.933594 669.265625 240.339844 668.679688 241.726562 C 668.097656 243.109375 667.453125 244.464844 666.753906 245.796875 C 666.050781 247.125 665.292969 248.417969 664.476562 249.683594 C 663.664062 250.945312 662.796875 252.167969 661.875 253.355469 C 660.953125 254.542969 659.980469 255.6875 658.960938 256.789062 C 657.9375 257.890625 656.871094 258.949219 655.757812 259.957031 C 654.644531 260.964844 653.488281 261.925781 652.292969 262.832031 C 651.09375 263.742188 649.859375 264.59375 648.589844 265.394531 C 647.316406 266.195312 646.015625 266.941406 644.679688 267.628906 C 643.339844 268.316406 641.976562 268.941406 640.585938 269.511719 C 639.195312 270.078125 637.78125 270.585938 636.347656 271.03125 C 634.910156 271.476562 633.460938 271.855469 631.992188 272.175781 C 630.523438 272.492188 629.042969 272.746094 627.554688 272.9375 Z M 627.554688 272.9375 " fill-opacity="1" fill-rule="nonzero"/></g></g></g><g clip-path="url(#f293ec9879)"><g clip-path="url(#0e1338aa8f)"><g clip-path="url(#c6e6f1aa96)"><path fill="#231f20" d="M 553.222656 646.355469 C 544.96875 689.675781 482.632812 700.960938 453.71875 681.011719 C 451.664062 679.523438 449.796875 677.828125 448.113281 675.929688 C 446.429688 674.03125 444.972656 671.972656 443.738281 669.753906 C 442.507812 667.539062 441.527344 665.214844 440.804688 662.78125 C 440.078125 660.351562 439.625 657.867188 439.445312 655.335938 C 447.058594 580.992188 471.253906 512.652344 520.332031 454.75 C 525.027344 449.703125 530.375 445.496094 536.382812 442.121094 C 560.222656 427.773438 571.75 433.273438 574.191406 460.890625 C 575.503906 474.464844 574.433594 488.433594 574.550781 502.113281 C 576.757812 502.183594 562.355469 598.53125 553.222656 646.355469 Z M 553.222656 646.355469 " fill-opacity="1" fill-rule="nonzero"/></g></g></g><g clip-path="url(#4712835d22)"><g clip-path="url(#87ebf70e99)"><g clip-path="url(#eab2b5b921)"><path fill="#231f20" d="M 415.988281 650.308594 C 419.191406 670.390625 408.445312 680.492188 391.609375 687.246094 C 351.796875 702.101562 312.714844 684.90625 299.421875 644.992188 C 294.675781 630.441406 290.628906 615.703125 287.28125 600.769531 C 283.929688 585.839844 281.289062 570.785156 279.363281 555.601562 C 277.433594 540.421875 276.226562 525.183594 275.742188 509.890625 C 275.253906 494.59375 275.488281 479.3125 276.449219 464.039062 C 278.226562 436.476562 289.742188 430.316406 313.738281 444.339844 C 321.75 448.921875 328.808594 454.675781 334.914062 461.601562 C 381.574219 515.914062 402.992188 581.46875 415.988281 650.308594 Z M 415.988281 650.308594 " fill-opacity="1" fill-rule="nonzero"/></g></g></g><g clip-path="url(#1fe98a87d0)"><g clip-path="url(#b2572b8548)"><g clip-path="url(#2fcbb45795)"><path fill="#231f20" d="M 182.917969 625.808594 C 184.339844 589.070312 193.238281 556.582031 218.273438 531.753906 C 220.289062 529.945312 222.457031 528.335938 224.773438 526.925781 C 227.089844 525.519531 229.515625 524.335938 232.050781 523.382812 C 234.585938 522.425781 237.1875 521.710938 239.855469 521.238281 C 242.527344 520.765625 245.214844 520.542969 247.925781 520.570312 C 252.148438 520.535156 257.238281 535.640625 259.613281 544.617188 C 267.554688 581.273438 275.125 617.382812 280.769531 654.152344 C 281.84375 661.304688 275.265625 675.59375 270.039062 676.832031 C 250.523438 681.226562 228.898438 686.371094 210.3125 682.21875 C 180.6875 675.316406 187.039062 645.511719 182.917969 625.808594 Z M 182.917969 625.808594 " fill-opacity="1" fill-rule="nonzero"/></g></g></g><g clip-path="url(#a4e0e9255d)"><g clip-path="url(#874ecd5def)"><g clip-path="url(#bc8494e011)"><path fill="#231f20" d="M 670.65625 614.296875 C 672.210938 687.003906 635.0625 691.640625 585.421875 674.539062 C 583.574219 673.289062 581.90625 671.828125 580.421875 670.164062 C 578.933594 668.5 577.671875 666.675781 576.636719 664.699219 C 575.601562 662.722656 574.824219 660.648438 574.304688 658.476562 C 573.785156 656.304688 573.539062 654.105469 573.5625 651.871094 C 578.828125 613.355469 586.484375 575.183594 593.21875 536.839844 C 597.421875 513.113281 611.328125 507.484375 629.832031 523.574219 C 632.96875 526.460938 635.949219 529.5 638.777344 532.691406 C 641.605469 535.882812 644.269531 539.207031 646.761719 542.664062 C 649.253906 546.125 651.566406 549.699219 653.699219 553.390625 C 655.832031 557.082031 657.773438 560.875 659.523438 564.761719 C 661.273438 568.648438 662.820312 572.617188 664.171875 576.660156 C 665.519531 580.703125 666.660156 584.804688 667.597656 588.964844 C 668.53125 593.125 669.253906 597.320312 669.765625 601.554688 C 670.277344 605.789062 670.574219 610.035156 670.65625 614.296875 Z M 670.65625 614.296875 " fill-opacity="1" fill-rule="nonzero"/></g></g></g><g clip-path="url(#8c8c7d487d)"><g clip-path="url(#76926643fa)"><g clip-path="url(#8f32ebe8bf)"><path stroke-linecap="butt" transform="matrix(9.181318, -0.0801241, 0.0801204, 9.180888, -587.224633, -126.512772)" fill="none" stroke-linejoin="miter" d="M 105.510111 55.80992 C 106.282506 56.22682 107.105738 56.473547 107.979808 56.550103 C 108.319321 56.599017 108.652684 56.572569 108.979905 56.469906 C 109.202379 56.376967 109.40892 56.257083 109.599959 56.109833 C 109.820038 55.950073 110.029995 55.780013 110.239953 55.609953 " stroke="#231f20" stroke-width="1" stroke-opacity="1" stroke-miterlimit="10"/></g></g></g><g clip-path="url(#8ef5d415a3)"><g clip-path="url(#cc32fe6206)"><g clip-path="url(#a8c857140b)"><path stroke-linecap="butt" transform="matrix(9.181318, -0.0801241, 0.0801204, 9.180888, -587.224633, -126.512772)" fill="none" stroke-linejoin="miter" d="M 115.210091 55.809904 C 114.438066 56.228217 113.614782 56.475042 112.739815 56.549948 C 112.400729 56.598471 112.067404 56.571735 111.739838 56.470166 C 111.519397 56.378892 111.316226 56.258837 111.129898 56.109996 L 110.479911 55.60992 " stroke="#231f20" stroke-width="1" stroke-opacity="1" stroke-miterlimit="10"/></g></g></g><g clip-path="url(#623383cae1)"><g clip-path="url(#2d73dd6447)"><g clip-path="url(#fe3260d3aa)"><g fill="#231f20" fill-opacity="1"><g transform="translate(829.626072, 564.891328)"><g><path d="M 114.71875 -231.78125 L 132.9375 -241.359375 C 157.914062 -254.484375 180.445312 -261.132812 200.53125 -261.3125 C 247.15625 -261.71875 270.6875 -237.085938 271.125 -187.421875 L 272.53125 -26.578125 L 297.875 -20.34375 L 298.03125 -2.59375 L 172.40625 -1.5 L 172.25 -19.25 L 194.796875 -25.90625 L 193.484375 -176.25 C 193.347656 -191.3125 190.0625 -203.03125 183.625 -211.40625 C 177.1875 -219.78125 168.054688 -223.914062 156.234375 -223.8125 C 142.597656 -223.695312 128.992188 -220.523438 115.421875 -214.296875 L 117.078125 -25.21875 L 140.25 -18.96875 L 140.40625 -1.21875 L 14.796875 -0.125 L 14.640625 -17.875 L 39.34375 -24.546875 L 37.5625 -228.96875 L 12.75 -235.203125 L 12.59375 -252.953125 L 110.765625 -253.8125 Z M 114.71875 -231.78125 "/></g></g></g></g></g></g><g clip-path="url(#00560c728a)"><g clip-path="url(#f54229853b)"><g clip-path="url(#bdc5153132)"><g fill="#231f20" fill-opacity="1"><g transform="translate(1119.468991, 562.361907)"><g><path d="M 68.3125 -93.953125 C 36.28125 -107.117188 20.09375 -133.242188 19.75 -172.328125 C 19.507812 -200.296875 29.09375 -221.941406 48.5 -237.265625 C 67.914062 -252.585938 95.828125 -260.40625 132.234375 -260.71875 C 139.941406 -260.78125 149.851562 -260.191406 161.96875 -258.953125 C 174.082031 -257.722656 182.925781 -256.234375 188.5 -254.484375 L 248.75 -284.875 L 258.28125 -273.390625 L 227.984375 -229.546875 C 239.222656 -216.015625 244.941406 -197.597656 245.140625 -174.296875 C 245.390625 -145.785156 235.941406 -123.78125 216.796875 -108.28125 C 197.648438 -92.78125 169.613281 -84.867188 132.6875 -84.546875 C 118.519531 -84.429688 104.796875 -85.382812 91.515625 -87.40625 L 85.234375 -66.921875 C 85.628906 -61.722656 88.984375 -56.863281 95.296875 -52.34375 C 101.617188 -47.832031 109.351562 -45.613281 118.5 -45.6875 L 177.390625 -46.203125 C 238.898438 -46.742188 269.863281 -23.34375 270.28125 24 C 270.445312 43.539062 265.257812 60.394531 254.71875 74.5625 C 244.175781 88.738281 228.582031 99.863281 207.9375 107.9375 C 187.289062 116.007812 161.550781 120.179688 130.71875 120.453125 C 94.132812 120.765625 65.753906 115.765625 45.578125 105.453125 C 25.398438 95.140625 15.234375 80.835938 15.078125 62.546875 C 15.003906 54.472656 18.207031 46.640625 24.6875 39.046875 C 31.164062 31.460938 43.769531 22.117188 62.5 11.015625 C 51.882812 6.984375 42.8125 -0.101562 35.28125 -10.25 C 27.75 -20.40625 23.929688 -31.132812 23.828125 -42.4375 Z M 211.53125 42.8125 C 211.382812 25.769531 199.925781 17.347656 177.15625 17.546875 L 91.890625 18.296875 C 76.203125 29.910156 68.421875 42.976562 68.546875 57.5 C 68.648438 68.976562 74.242188 77.539062 85.328125 83.1875 C 96.410156 88.832031 111.546875 91.570312 130.734375 91.40625 C 156.734375 91.175781 176.726562 86.785156 190.71875 78.234375 C 204.71875 69.679688 211.65625 57.875 211.53125 42.8125 Z M 131.921875 -111.4375 C 145.191406 -111.550781 154.738281 -116.789062 160.5625 -127.15625 C 166.394531 -137.519531 169.222656 -153.007812 169.046875 -173.625 C 168.867188 -194.238281 165.820312 -209.40625 159.90625 -219.125 C 153.988281 -228.851562 144.300781 -233.660156 130.84375 -233.546875 C 118.476562 -233.441406 109.515625 -228.472656 103.953125 -218.640625 C 98.390625 -208.816406 95.695312 -193.597656 95.875 -172.984375 C 96.050781 -152.367188 98.960938 -136.929688 104.609375 -126.671875 C 110.265625 -116.410156 119.367188 -111.332031 131.921875 -111.4375 Z M 131.921875 -111.4375 "/></g></g></g></g></g></g><g clip-path="url(#06b881af51)"><g clip-path="url(#68e03c77ae)"><g clip-path="url(#eaca15003e)"><g fill="#231f20" fill-opacity="1"><g transform="translate(1378.379127, 560.102432)"><g><path d="M 189.4375 -23.71875 L 171.21875 -14.140625 C 146.238281 -1.015625 123.707031 5.632812 103.625 5.8125 C 57 6.21875 33.46875 -18.410156 33.03125 -68.078125 L 31.640625 -228.921875 L 6.296875 -235.15625 L 6.140625 -252.90625 L 109.15625 -253.796875 L 110.671875 -79.25 C 110.804688 -64.175781 114.09375 -52.453125 120.53125 -44.078125 C 126.96875 -35.710938 136.109375 -31.582031 147.953125 -31.6875 C 161.578125 -31.800781 175.171875 -34.96875 188.734375 -41.1875 L 187.09375 -230.265625 L 163.921875 -236.53125 L 163.765625 -254.28125 L 264.625 -255.15625 L 266.625 -26.53125 L 291.40625 -20.296875 L 291.5625 -2.546875 L 193.390625 -1.6875 Z M 189.4375 -23.71875 "/></g></g></g></g></g></g><g clip-path="url(#0b1b588004)"><g clip-path="url(#a6d8f27fb3)"><g clip-path="url(#2089f87228)"><g fill="#231f20" fill-opacity="1"><g transform="translate(1668.222068, 557.573011)"><g><path d="M 124.328125 6.71875 L 21.15625 -228.828125 L 3.328125 -235.125 L 3.171875 -252.875 L 132.5625 -254 L 132.71875 -236.25 L 102.65625 -228.984375 L 163.3125 -89.640625 L 215.078125 -230.515625 L 185.421875 -236.71875 L 185.265625 -254.46875 L 267.84375 -255.1875 L 268 -237.4375 L 249.765625 -231.875 L 152.125 14.546875 C 140.894531 43.878906 131.03125 65.171875 122.53125 78.421875 C 114.039062 91.671875 104.578125 101.613281 94.140625 108.25 C 83.710938 114.894531 71.773438 118.273438 58.328125 118.390625 C 43.796875 118.515625 28.984375 116.941406 13.890625 113.671875 L 13.328125 48.578125 L 29.46875 48.4375 L 41.34375 82.21875 C 46.570312 86.300781 53.21875 88.304688 61.28125 88.234375 C 68.101562 88.179688 74.097656 86.515625 79.265625 83.234375 C 84.441406 79.960938 89.289062 75.257812 93.8125 69.125 C 98.332031 62.988281 102.613281 55.460938 106.65625 46.546875 C 110.707031 37.628906 116.597656 24.351562 124.328125 6.71875 Z M 124.328125 6.71875 "/></g></g></g></g></g></g><g clip-path="url(#db744b703a)"><g clip-path="url(#bbe47f0be6)"><g clip-path="url(#3a9b51596d)"><g fill="#231f20" fill-opacity="1"><g transform="translate(1927.132182, 555.313537)"><g><path d="M 130.625 -260.171875 C 164.875 -260.472656 189.738281 -251.539062 205.21875 -233.375 C 220.707031 -215.21875 228.617188 -186.867188 228.953125 -148.328125 L 229.15625 -126.265625 L 96.5625 -125.109375 L 96.59375 -120.8125 C 96.820312 -94.09375 99.140625 -75.101562 103.546875 -63.84375 C 107.953125 -52.59375 115.019531 -44.050781 124.75 -38.21875 C 134.488281 -32.382812 147.785156 -29.539062 164.640625 -29.6875 C 180.410156 -29.820312 200.289062 -32.59375 224.28125 -38 L 224.453125 -17.28125 C 214.640625 -11.28125 201.90625 -6.285156 186.25 -2.296875 C 170.601562 1.691406 155.335938 3.753906 140.453125 3.890625 C 99.035156 4.242188 68.320312 -6.289062 48.3125 -27.71875 C 28.3125 -49.15625 18.113281 -82.554688 17.71875 -127.921875 C 17.332031 -172.023438 26.503906 -205.007812 45.234375 -226.875 C 63.972656 -248.738281 92.4375 -259.835938 130.625 -260.171875 Z M 127.90625 -232.96875 C 117.144531 -232.875 109.164062 -226.976562 103.96875 -215.28125 C 98.78125 -203.582031 96.316406 -182.945312 96.578125 -153.375 L 155.21875 -153.875 C 155.007812 -177.894531 154.054688 -194.785156 152.359375 -204.546875 C 150.660156 -214.304688 147.863281 -221.5 143.96875 -226.125 C 140.070312 -230.75 134.71875 -233.03125 127.90625 -232.96875 Z M 127.90625 -232.96875 "/></g></g></g></g></g></g><g clip-path="url(#aa3ba4d308)"><g clip-path="url(#677a679287)"><g clip-path="url(#2c17a66233)"><g fill="#231f20" fill-opacity="1"><g transform="translate(2155.109475, 553.32401)"><g><path d="M 114.71875 -231.78125 L 132.9375 -241.359375 C 157.914062 -254.484375 180.445312 -261.132812 200.53125 -261.3125 C 247.15625 -261.71875 270.6875 -237.085938 271.125 -187.421875 L 272.53125 -26.578125 L 297.875 -20.34375 L 298.03125 -2.59375 L 172.40625 -1.5 L 172.25 -19.25 L 194.796875 -25.90625 L 193.484375 -176.25 C 193.347656 -191.3125 190.0625 -203.03125 183.625 -211.40625 C 177.1875 -219.78125 168.054688 -223.914062 156.234375 -223.8125 C 142.597656 -223.695312 128.992188 -220.523438 115.421875 -214.296875 L 117.078125 -25.21875 L 140.25 -18.96875 L 140.40625 -1.21875 L 14.796875 -0.125 L 14.640625 -17.875 L 39.34375 -24.546875 L 37.5625 -228.96875 L 12.75 -235.203125 L 12.59375 -252.953125 L 110.765625 -253.8125 Z M 114.71875 -231.78125 "/></g></g></g></g></g></g><g clip-path="url(#9095007cd8)"><g clip-path="url(#cca033e098)"><g clip-path="url(#1fa45f23b3)"><g fill="#231f20" fill-opacity="1"><g transform="translate(2444.952417, 550.794589)"><g><path d="M 107.921875 -240.875 C 126.992188 -254.125 150.242188 -260.867188 177.671875 -261.109375 C 212.816406 -261.421875 239.039062 -251.335938 256.34375 -230.859375 C 273.65625 -210.390625 282.503906 -177.925781 282.890625 -133.46875 C 283.273438 -89.351562 273.617188 -55.507812 253.921875 -31.9375 C 234.222656 -8.363281 205.726562 3.582031 168.4375 3.90625 C 149.425781 4.070312 130.21875 1.816406 110.8125 -2.859375 C 111.988281 8.972656 112.640625 22.238281 112.765625 36.9375 L 113.25 92.078125 L 150.421875 98.21875 L 150.578125 115.984375 L 8.28125 117.21875 L 8.125 99.453125 L 35.515625 92.765625 L 32.71875 -228.921875 L 4.953125 -235.140625 L 4.796875 -252.890625 L 107.28125 -253.78125 Z M 204.09375 -130.890625 C 203.507812 -197.941406 187.625 -231.332031 156.4375 -231.0625 C 139.757812 -230.914062 124.457031 -227.378906 110.53125 -220.453125 L 112.1875 -29.765625 C 126.738281 -26.117188 141.90625 -24.363281 157.6875 -24.5 C 189.238281 -24.769531 204.707031 -60.234375 204.09375 -130.890625 Z M 204.09375 -130.890625 "/></g></g></g></g></g></g><g clip-path="url(#537537b4c0)"><g clip-path="url(#ba63316ed4)"><g clip-path="url(#ab6efdba5f)"><g fill="#231f20" fill-opacity="1"><g transform="translate(2734.795268, 548.265169)"><g><path d="M 144.625 -259.75 C 207.914062 -260.300781 239.765625 -237.269531 240.171875 -190.65625 L 241.609375 -26.3125 L 266.9375 -20.078125 L 267.09375 -2.328125 L 174.015625 -1.515625 L 167.953125 -20.828125 C 154.046875 -11.203125 141.457031 -4.59375 130.1875 -1 C 118.925781 2.59375 107.554688 4.4375 96.078125 4.53125 C 43.890625 4.988281 17.578125 -19.882812 17.140625 -70.09375 C 16.972656 -89.101562 20.695312 -104.332031 28.3125 -115.78125 C 35.925781 -127.238281 46.972656 -135.765625 61.453125 -141.359375 C 75.929688 -146.953125 98.765625 -150.242188 129.953125 -151.234375 L 162.765625 -152.328125 L 162.4375 -189.15625 C 162.175781 -219.632812 149.582031 -234.769531 124.65625 -234.5625 C 109.59375 -234.425781 92.78125 -229.613281 74.21875 -220.125 L 64.265625 -188.578125 L 46.515625 -188.421875 L 45.984375 -249.484375 C 73.023438 -253.835938 92.90625 -256.609375 105.625 -257.796875 C 118.351562 -258.984375 131.351562 -259.632812 144.625 -259.75 Z M 162.96875 -128.375 L 140.390625 -127.390625 C 122.992188 -126.515625 110.96875 -121.832031 104.3125 -113.34375 C 97.664062 -104.863281 94.425781 -91.207031 94.59375 -72.375 C 94.726562 -57.132812 97.515625 -45.953125 102.953125 -38.828125 C 108.398438 -31.703125 115.425781 -28.175781 124.03125 -28.25 C 136.226562 -28.351562 149.472656 -31.601562 163.765625 -38 Z M 162.96875 -128.375 "/></g></g></g></g></g></g><g clip-path="url(#0860337581)"><g clip-path="url(#f523e685bf)"><g clip-path="url(#5ed6a28055)"><g fill="#231f20" fill-opacity="1"><g transform="translate(2993.705472, 546.005694)"><g><path d="M 114.71875 -231.78125 L 132.9375 -241.359375 C 157.914062 -254.484375 180.445312 -261.132812 200.53125 -261.3125 C 247.15625 -261.71875 270.6875 -237.085938 271.125 -187.421875 L 272.53125 -26.578125 L 297.875 -20.34375 L 298.03125 -2.59375 L 172.40625 -1.5 L 172.25 -19.25 L 194.796875 -25.90625 L 193.484375 -176.25 C 193.347656 -191.3125 190.0625 -203.03125 183.625 -211.40625 C 177.1875 -219.78125 168.054688 -223.914062 156.234375 -223.8125 C 142.597656 -223.695312 128.992188 -220.523438 115.421875 -214.296875 L 117.078125 -25.21875 L 140.25 -18.96875 L 140.40625 -1.21875 L 14.796875 -0.125 L 14.640625 -17.875 L 39.34375 -24.546875 L 37.5625 -228.96875 L 12.75 -235.203125 L 12.59375 -252.953125 L 110.765625 -253.8125 Z M 114.71875 -231.78125 "/></g></g></g></g></g></g><g clip-path="url(#a480366630)"><g clip-path="url(#60af81d79d)"><g clip-path="url(#63e1651a7f)"><g fill="#231f20" fill-opacity="1"><g transform="translate(3283.548323, 543.476273)"><g><path d="M 197.03125 -15.96875 C 187.039062 -9.4375 179.367188 -5.113281 174.015625 -3 C 168.660156 -0.894531 162.578125 0.8125 155.765625 2.125 C 148.960938 3.445312 141.441406 4.144531 133.203125 4.21875 C 95.898438 4.539062 68.007812 -5.925781 49.53125 -27.1875 C 31.050781 -48.457031 21.617188 -81.328125 21.234375 -125.796875 C 20.847656 -169.546875 30.375 -202.890625 49.8125 -225.828125 C 69.25 -248.773438 97.617188 -260.410156 134.921875 -260.734375 C 154.460938 -260.910156 174.203125 -258.664062 194.140625 -254 C 193.015625 -259.914062 192.359375 -273.8125 192.171875 -295.6875 L 191.609375 -359.703125 L 165.75 -365.921875 L 165.59375 -383.671875 L 269.140625 -384.578125 L 272.265625 -26.578125 L 300.015625 -20.359375 L 300.171875 -2.609375 L 202.796875 -1.765625 Z M 100.03125 -128.640625 C 100.320312 -95.109375 104.753906 -69.546875 113.328125 -51.953125 C 121.910156 -34.367188 134.09375 -25.648438 149.875 -25.796875 C 164.207031 -25.921875 179.054688 -29.90625 194.421875 -37.75 L 192.765625 -228.171875 C 178.742188 -231.804688 164.566406 -233.5625 150.234375 -233.4375 C 134.085938 -233.289062 121.609375 -224.347656 112.796875 -206.609375 C 103.984375 -188.867188 99.726562 -162.878906 100.03125 -128.640625 Z M 100.03125 -128.640625 "/></g></g></g></g></g></g><g clip-path="url(#efcb5c45bd)"><g clip-path="url(#a303131872)"><g clip-path="url(#71beb7e380)"><g fill="#231f20" fill-opacity="1"><g transform="translate(3573.391175, 540.946853)"><g><path d="M 144.625 -259.75 C 207.914062 -260.300781 239.765625 -237.269531 240.171875 -190.65625 L 241.609375 -26.3125 L 266.9375 -20.078125 L 267.09375 -2.328125 L 174.015625 -1.515625 L 167.953125 -20.828125 C 154.046875 -11.203125 141.457031 -4.59375 130.1875 -1 C 118.925781 2.59375 107.554688 4.4375 96.078125 4.53125 C 43.890625 4.988281 17.578125 -19.882812 17.140625 -70.09375 C 16.972656 -89.101562 20.695312 -104.332031 28.3125 -115.78125 C 35.925781 -127.238281 46.972656 -135.765625 61.453125 -141.359375 C 75.929688 -146.953125 98.765625 -150.242188 129.953125 -151.234375 L 162.765625 -152.328125 L 162.4375 -189.15625 C 162.175781 -219.632812 149.582031 -234.769531 124.65625 -234.5625 C 109.59375 -234.425781 92.78125 -229.613281 74.21875 -220.125 L 64.265625 -188.578125 L 46.515625 -188.421875 L 45.984375 -249.484375 C 73.023438 -253.835938 92.90625 -256.609375 105.625 -257.796875 C 118.351562 -258.984375 131.351562 -259.632812 144.625 -259.75 Z M 162.96875 -128.375 L 140.390625 -127.390625 C 122.992188 -126.515625 110.96875 -121.832031 104.3125 -113.34375 C 97.664062 -104.863281 94.425781 -91.207031 94.59375 -72.375 C 94.726562 -57.132812 97.515625 -45.953125 102.953125 -38.828125 C 108.398438 -31.703125 115.425781 -28.175781 124.03125 -28.25 C 136.226562 -28.351562 149.472656 -31.601562 163.765625 -38 Z M 162.96875 -128.375 "/></g></g></g></g></g></g></svg>