<svg xmlns="http://www.w3.org/2000/svg" viewBox="0 0 611 120">
    <defs>
        <style>
            .cls-1,.cls-3{fill:#231f20;}.cls-2{fill:none;stroke:#231f20;stroke-miterlimit:10;}.cls-3{font-size:60px;font-family:JetBrainsMono-ExtraBold,
            JetBrains Mono;font-weight:800;letter-spacing:-0.03em;}
        </style>
    </defs>
    <g id="Layer_4" data-name="Layer 4">
        <path class="cls-1"
              d="M111.09,51.81c1.65.24,2,1,1.13,2.43a15.69,15.69,0,0,1-1,1.41.85.85,0,0,1-1.46,0,16.88,16.88,0,0,1-1.45-1.83,1.21,1.21,0,0,1,.85-1.94A15.55,15.55,0,0,1,111.09,51.81Z"/>
        <path class="cls-1"
              d="M120.68,52.36a4.59,4.59,0,0,0,4.14-2c2-2.67,1.25-7.13-1.32-9.57a7.64,7.64,0,0,0-9.62-.67c-2.6,2-2.6,4.44-.17,6.61,1,.91,2,3.66,3,4.63C117.88,52.54,118.68,52.36,120.68,52.36Z"/>
        <path class="cls-1"
              d="M99.3,52.36a4.6,4.6,0,0,1-4.14-2c-2-2.67-1.24-7.13,1.32-9.57a7.65,7.65,0,0,1,9.63-.67c2.59,2,2.6,4.44.17,6.61-1,.91-2,3.66-3,4.63C102.11,52.54,101.3,52.36,99.3,52.36Z"/>
        <path class="cls-1"
              d="M88.45,43.62a5.69,5.69,0,0,1-4.74-7,6.36,6.36,0,0,1,4.9-5.11c2.45-.64,4.4.37,5.92,2.25,1,1.2,1.19,2.37-.25,3.79A16.54,16.54,0,0,0,91.36,42C90.53,43.65,90.32,43.92,88.45,43.62Z"/>
        <path class="cls-1"
              d="M131.92,44.66c-1.8.26-2,0-2.8-1.64a26.71,26.71,0,0,0-3.07-4.6c-1-1.18-1.2-1.82-.47-3.09a5.88,5.88,0,0,1,6.64-2.7,6.68,6.68,0,0,1,4.66,6.77A5.63,5.63,0,0,1,131.92,44.66Z"/>
        <path class="cls-1"
              d="M123.47,85.26c-.94,4.71-7.74,5.88-10.87,3.68a3.79,3.79,0,0,1-1.53-2.81c.9-8.09,3.6-15.51,9-21.77A7.21,7.21,0,0,1,121.83,63c2.61-1.54,3.86-.93,4.1,2.08.13,1.48,0,3,0,4.49C126.17,69.58,124.51,80.06,123.47,85.26Z"/>
        <path class="cls-1"
              d="M108.52,85.56c.33,2.19-.85,3.28-2.69,4-4.35,1.58-8.59-.33-10-4.69a52.9,52.9,0,0,1-2.33-19.73c.22-3,1.48-3.66,4.08-2.11a9.1,9.1,0,0,1,2.29,1.9C104.9,70.89,107.17,78.05,108.52,85.56Z"/>
        <path class="cls-1"
              d="M83.16,82.67c.19-4,1.19-7.53,3.94-10.21a4.76,4.76,0,0,1,3.24-1.19c.46,0,1,1.65,1.25,2.63.83,4,1.62,7.94,2.2,11.95.11.78-.62,2.33-1.19,2.46-2.13.46-4.49,1-6.51.53C82.87,88.06,83.59,84.82,83.16,82.67Z"/>
        <path class="cls-1"
              d="M136.29,81.88c.1,7.92-3.95,8.39-9.34,6.48a2.94,2.94,0,0,1-1.27-2.48c.61-4.19,1.48-8.34,2.25-12.51.48-2.58,2-3.18,4-1.41A13.8,13.8,0,0,1,136.29,81.88Z"/>
        <path class="cls-2"
              d="M105.51,55.81a6.37,6.37,0,0,0,2.47.74,2.26,2.26,0,0,0,1-.08,2.78,2.78,0,0,0,.62-.36c.22-.16.43-.33.64-.5"/>
        <path class="cls-2" d="M115.21,55.81a6.32,6.32,0,0,1-2.47.74,2.28,2.28,0,0,1-1-.08,2.51,2.51,0,0,1-.61-.36l-.65-.5"/>
        <text class="cls-3" transform="translate(153.65 76.65)">nguyenpanda</text>
    </g>
</svg>