<svg id="Layer_4" data-name="Layer 4" xmlns="http://www.w3.org/2000/svg" viewBox="0 0 611 120"><defs><style>.cls-1{fill:#fff;stroke:#fff;}.cls-1,.cls-3{stroke-miterlimit:10;}.cls-2{fill:#231f20;}.cls-3{fill:none;stroke:#231f20;}</style></defs><rect class="cls-1" x="0.5" y="-0.5" width="612" height="120"/><path class="cls-2" d="M111.09,51.81c1.65.24,2,1,1.13,2.43a15.69,15.69,0,0,1-1,1.41.85.85,0,0,1-1.46,0,16.88,16.88,0,0,1-1.45-1.83,1.21,1.21,0,0,1,.85-1.94A15.55,15.55,0,0,1,111.09,51.81Z"/><path class="cls-2" d="M120.68,52.36a4.59,4.59,0,0,0,4.14-2c2-2.67,1.25-7.13-1.32-9.57a7.64,7.64,0,0,0-9.62-.67c-2.6,2-2.6,4.44-.17,6.61,1,.91,2,3.66,3,4.63C117.88,52.54,118.68,52.36,120.68,52.36Z"/><path class="cls-2" d="M99.3,52.36a4.6,4.6,0,0,1-4.14-2c-2-2.67-1.24-7.13,1.32-9.57a7.65,7.65,0,0,1,9.63-.67c2.59,2,2.6,4.44.17,6.61-1,.91-2,3.66-3,4.63C102.11,52.54,101.3,52.36,99.3,52.36Z"/><path class="cls-2" d="M88.45,43.62a5.69,5.69,0,0,1-4.74-7,6.36,6.36,0,0,1,4.9-5.11c2.45-.64,4.4.37,5.92,2.25,1,1.2,1.19,2.37-.25,3.79A16.54,16.54,0,0,0,91.36,42C90.53,43.65,90.32,43.92,88.45,43.62Z"/><path class="cls-2" d="M131.92,44.66c-1.8.26-2,0-2.8-1.64a26.71,26.71,0,0,0-3.07-4.6c-1-1.18-1.2-1.82-.47-3.09a5.88,5.88,0,0,1,6.64-2.7,6.68,6.68,0,0,1,4.66,6.77A5.63,5.63,0,0,1,131.92,44.66Z"/><path class="cls-2" d="M123.47,85.26c-.94,4.71-7.74,5.88-10.87,3.68a3.79,3.79,0,0,1-1.53-2.81c.9-8.09,3.6-15.51,9-21.77A7.21,7.21,0,0,1,121.83,63c2.61-1.54,3.86-.93,4.1,2.08.13,1.48,0,3,0,4.49C126.17,69.58,124.51,80.06,123.47,85.26Z"/><path class="cls-2" d="M108.52,85.56c.33,2.19-.85,3.28-2.69,4-4.35,1.58-8.59-.33-10-4.69a52.9,52.9,0,0,1-2.33-19.73c.22-3,1.48-3.66,4.08-2.11a9.1,9.1,0,0,1,2.29,1.9C104.9,70.89,107.17,78.05,108.52,85.56Z"/><path class="cls-2" d="M83.16,82.67c.19-4,1.19-7.53,3.94-10.21a4.76,4.76,0,0,1,3.24-1.19c.46,0,1,1.65,1.25,2.63.83,4,1.62,7.94,2.2,11.95.11.78-.62,2.33-1.19,2.46-2.13.46-4.49,1-6.51.53C82.87,88.06,83.59,84.82,83.16,82.67Z"/><path class="cls-2" d="M136.29,81.88c.1,7.92-3.95,8.39-9.34,6.48a2.94,2.94,0,0,1-1.27-2.48c.61-4.19,1.48-8.34,2.25-12.51.48-2.58,2-3.18,4-1.41A13.8,13.8,0,0,1,136.29,81.88Z"/><path class="cls-3" d="M105.51,55.81a6.37,6.37,0,0,0,2.47.74,2.26,2.26,0,0,0,1-.08,2.78,2.78,0,0,0,.62-.36c.22-.16.43-.33.64-.5"/><path class="cls-3" d="M115.21,55.81a6.32,6.32,0,0,1-2.47.74,2.28,2.28,0,0,1-1-.08,2.51,2.51,0,0,1-.61-.36l-.65-.5"/><path class="cls-2" d="M157.61,76.65v-33h8.7v6a8.25,8.25,0,0,1,3.09-4.8,9.29,9.29,0,0,1,5.79-1.8,9.7,9.7,0,0,1,7.71,3.36,13.18,13.18,0,0,1,2.91,8.94v21.3h-9V56.25a5.54,5.54,0,0,0-1.35-4,5.69,5.69,0,0,0-7.5,0,5.54,5.54,0,0,0-1.35,4v20.4Z"/><path class="cls-2" d="M196.55,87.45v-7.2h9.3A5.46,5.46,0,0,0,209.72,79a4.53,4.53,0,0,0,1.35-3.48V74.25l.06-4.92a9.32,9.32,0,0,1-3.42,4.08,9.49,9.49,0,0,1-5.28,1.44,10,10,0,0,1-8-3.48q-3-3.48-3-9.42V56q0-5.88,3-9.39a10,10,0,0,1,8-3.51,9.47,9.47,0,0,1,5.34,1.47,9.58,9.58,0,0,1,3.42,4.11v-5h8.7V75.81a10.57,10.57,0,0,1-3.69,8.52c-2.46,2.08-5.82,3.12-10,3.12Zm9.12-20.4a5.14,5.14,0,0,0,3.84-1.41,5.47,5.47,0,0,0,1.38-4v-5.4a5.47,5.47,0,0,0-1.38-4,6,6,0,0,0-7.71,0,5.54,5.54,0,0,0-1.35,4v5.4a5.54,5.54,0,0,0,1.35,4A5.11,5.11,0,0,0,205.67,67.05Z"/><path class="cls-2" d="M240,77.25q-6.66,0-10.41-3.6t-3.75-9.84V43.65h9v20.1q0,5.7,5.16,5.7A4.9,4.9,0,0,0,243.85,68a6,6,0,0,0,1.36-4.23V43.65h9V63.81q0,6.3-3.79,9.87C247.91,76.06,244.44,77.25,240,77.25Z"/><path class="cls-2" d="M265.61,87.45,270.11,75,257.69,43.65H267l5.34,14.4c.4,1.08.82,2.32,1.24,3.72a25,25,0,0,1,.87,4,32.71,32.71,0,0,1,.77-4,35.43,35.43,0,0,1,1.15-3.72l5-14.4h9.42L275,87.45Z"/><path class="cls-2" d="M308.5,77.25a16.78,16.78,0,0,1-7.65-1.65,12,12,0,0,1-5-4.62A13.28,13.28,0,0,1,294,64.05v-7.8a13.28,13.28,0,0,1,1.77-6.93,12,12,0,0,1,5-4.62,16.78,16.78,0,0,1,7.65-1.65,16.4,16.4,0,0,1,7.59,1.65,12.09,12.09,0,0,1,5,4.62,13.28,13.28,0,0,1,1.77,6.93v6.12H302.62v1.68a6.15,6.15,0,0,0,1.47,4.56,6.07,6.07,0,0,0,4.41,1.44,8.69,8.69,0,0,0,3.36-.6,2.5,2.5,0,0,0,1.68-1.8h8.82a11.23,11.23,0,0,1-4.74,7A15.53,15.53,0,0,1,308.5,77.25Zm-5.88-21V57l11.64-.12v-.78a7.17,7.17,0,0,0-1.41-4.74,5.36,5.36,0,0,0-4.35-1.68,5.45,5.45,0,0,0-4.41,1.74A7.21,7.21,0,0,0,302.62,56.25Z"/><path class="cls-2" d="M328.6,76.65v-33h8.7v6a8.25,8.25,0,0,1,3.09-4.8,9.29,9.29,0,0,1,5.79-1.8,9.7,9.7,0,0,1,7.71,3.36,13.18,13.18,0,0,1,2.91,8.94v21.3h-9V56.25a5.54,5.54,0,0,0-1.35-4,5.69,5.69,0,0,0-7.5,0,5.54,5.54,0,0,0-1.35,4v20.4Z"/><path class="cls-2" d="M362.8,87.45V43.65h8.7v6a9.9,9.9,0,0,1,3.42-4.86,9.19,9.19,0,0,1,5.64-1.74,9.61,9.61,0,0,1,5.58,1.65,11,11,0,0,1,3.75,4.53A15.68,15.68,0,0,1,391.24,56v8.4A15.73,15.73,0,0,1,389.89,71a11,11,0,0,1-3.75,4.56,9.61,9.61,0,0,1-5.58,1.65A9.2,9.2,0,0,1,375,75.54a9.73,9.73,0,0,1-3.42-4.77l.24,7.68v9Zm14.28-18A5,5,0,0,0,380.89,68a5.54,5.54,0,0,0,1.35-4v-7.8a5.52,5.52,0,0,0-1.35-4,6,6,0,0,0-7.74.09,6,6,0,0,0-1.35,4.23v7.2A6,6,0,0,0,373.15,68,5.07,5.07,0,0,0,377.08,69.45Z"/><path class="cls-2" d="M406.78,77.25A10.6,10.6,0,0,1,399,74.4a10,10,0,0,1-2.88-7.47,9.59,9.59,0,0,1,3.54-7.86q3.54-2.88,10-2.88h6.48v-2.1a3.55,3.55,0,0,0-1.29-2.91,5.71,5.71,0,0,0-3.69-1,6.46,6.46,0,0,0-3.63.9A3.26,3.26,0,0,0,406,53.67h-8.52a9.84,9.84,0,0,1,3.84-7.74q3.66-2.88,9.9-2.88,6.54,0,10.2,3a10.26,10.26,0,0,1,3.66,8.4v22.2h-8.7V71a7,7,0,0,1-3.15,4.62A11.5,11.5,0,0,1,406.78,77.25Zm3.18-7.2a6.65,6.65,0,0,0,4.47-1.41A4.62,4.62,0,0,0,416.08,65V61.59h-6.3a5.31,5.31,0,0,0-3.69,1.17,4.17,4.17,0,0,0,.06,6.09A5.54,5.54,0,0,0,410,70.05Z"/><path class="cls-2" d="M431.2,76.65v-33h8.7v6a8.25,8.25,0,0,1,3.09-4.8,9.29,9.29,0,0,1,5.79-1.8,9.7,9.7,0,0,1,7.71,3.36,13.18,13.18,0,0,1,2.91,8.94v21.3h-9V56.25a5.54,5.54,0,0,0-1.35-4,5.69,5.69,0,0,0-7.5,0,5.54,5.54,0,0,0-1.35,4v20.4Z"/><path class="cls-2" d="M475.72,77.25A9.63,9.63,0,0,1,468,73.74q-3-3.51-3-9.39V56q0-5.88,3-9.39a9.63,9.63,0,0,1,7.71-3.51,9,9,0,0,1,9,6.36l-.24-7.56v-9h9v43.8h-8.7V70.71a9.72,9.72,0,0,1-3.42,4.83A9.3,9.3,0,0,1,475.72,77.25Zm3.48-7.8A5.07,5.07,0,0,0,483.13,68a6,6,0,0,0,1.35-4.23v-7.2a6,6,0,0,0-1.35-4.23,6,6,0,0,0-7.74-.09,5.52,5.52,0,0,0-1.35,4v7.8a5.54,5.54,0,0,0,1.35,4A5,5,0,0,0,479.2,69.45Z"/><path class="cls-2" d="M509.38,77.25a10.6,10.6,0,0,1-7.8-2.85,10,10,0,0,1-2.88-7.47,9.59,9.59,0,0,1,3.54-7.86q3.54-2.88,10-2.88h6.48v-2.1a3.55,3.55,0,0,0-1.29-2.91,5.71,5.71,0,0,0-3.69-1,6.46,6.46,0,0,0-3.63.9,3.26,3.26,0,0,0-1.47,2.64h-8.52a9.84,9.84,0,0,1,3.84-7.74q3.66-2.88,9.9-2.88,6.54,0,10.2,3a10.26,10.26,0,0,1,3.66,8.4v22.2H519V71a7,7,0,0,1-3.15,4.62A11.5,11.5,0,0,1,509.38,77.25Zm3.18-7.2A6.65,6.65,0,0,0,517,68.64,4.62,4.62,0,0,0,518.68,65V61.59h-6.3a5.31,5.31,0,0,0-3.69,1.17,4.17,4.17,0,0,0,.06,6.09A5.54,5.54,0,0,0,512.56,70.05Z"/></svg>